<svg width="579" height="261" viewBox="0 0 579 261" fill="none" xmlns="http://www.w3.org/2000/svg">
<path d="M43.12 167.1C43.12 169.9 43.4467 172.047 44.1 173.54C44.7533 174.94 46.1067 175.92 48.16 176.48C50.3067 177.04 53.48 177.32 57.68 177.32C57.96 177.32 58.1 177.6 58.1 178.16C58.1 178.72 57.96 179 57.68 179C54.6933 179 51.4267 178.953 47.88 178.86C44.4267 178.767 40.6467 178.72 36.54 178.72C33.2733 178.72 30.1467 178.767 27.16 178.86C24.1733 178.953 21.5133 179 19.18 179C18.9 179 18.76 178.72 18.76 178.16C18.76 177.6 18.9 177.32 19.18 177.32C22.26 177.32 24.5467 177.087 26.04 176.62C27.5333 176.153 28.5133 175.22 28.98 173.82C29.54 172.42 29.82 170.367 29.82 167.66V102.84C29.82 100.133 29.54 98.1267 28.98 96.82C28.5133 95.42 27.5333 94.4867 26.04 94.02C24.5467 93.46 22.26 93.18 19.18 93.18C18.9 93.18 18.76 92.9 18.76 92.34C18.76 91.78 18.9 91.5 19.18 91.5C21.5133 91.5 24.1267 91.5933 27.02 91.78C30.0067 91.8733 33.1333 91.92 36.4 91.92C38.64 91.92 41.5333 91.78 45.08 91.5C48.72 91.22 52.22 91.08 55.58 91.08C61.2733 91.08 66.3133 91.8733 70.7 93.46C75.18 94.9533 78.7267 97.38 81.34 100.74C83.9533 104.1 85.3533 108.533 85.54 114.04C85.6333 118.893 84.7933 123.093 83.02 126.64C81.2467 130.187 78.82 133.127 75.74 135.46C72.7533 137.7 69.44 139.427 65.8 140.64C62.16 141.76 58.52 142.32 54.88 142.32C53.8533 142.32 52.7333 142.273 51.52 142.18C50.4 142.087 49.28 141.9 48.16 141.62C47.88 141.527 47.7867 141.2 47.88 140.64C47.9733 139.987 48.2067 139.707 48.58 139.8C49.3267 139.987 50.1667 140.127 51.1 140.22C52.0333 140.313 52.8267 140.36 53.48 140.36C56.56 140.36 59.4067 139.52 62.02 137.84C64.6333 136.16 66.7333 133.593 68.32 130.14C70 126.687 70.84 122.347 70.84 117.12C70.84 112.173 70.0467 107.973 68.46 104.52C66.8733 101.067 64.6333 98.4533 61.74 96.68C58.94 94.8133 55.4867 93.88 51.38 93.88C49.2333 93.88 47.5533 94.1133 46.34 94.58C45.1267 94.9533 44.2867 95.7933 43.82 97.1C43.3533 98.4067 43.12 100.413 43.12 103.12V167.1ZM119.956 167.1C119.956 169.9 120.283 172.047 120.936 173.54C121.589 174.94 122.943 175.92 124.996 176.48C127.143 177.04 130.316 177.32 134.516 177.32C134.796 177.32 134.936 177.6 134.936 178.16C134.936 178.72 134.796 179 134.516 179C131.529 179 128.263 178.953 124.716 178.86C121.263 178.767 117.483 178.72 113.376 178.72C110.109 178.72 106.983 178.767 103.996 178.86C101.009 178.953 98.3493 179 96.0159 179C95.7359 179 95.5959 178.72 95.5959 178.16C95.5959 177.6 95.7359 177.32 96.0159 177.32C99.0959 177.32 101.383 177.087 102.876 176.62C104.369 176.153 105.349 175.22 105.816 173.82C106.376 172.42 106.656 170.367 106.656 167.66V102.84C106.656 100.133 106.376 98.1267 105.816 96.82C105.349 95.42 104.369 94.4867 102.876 94.02C101.383 93.46 99.0959 93.18 96.0159 93.18C95.7359 93.18 95.5959 92.9 95.5959 92.34C95.5959 91.78 95.7359 91.5 96.0159 91.5C98.3493 91.5 100.963 91.5933 103.856 91.78C106.843 91.8733 109.969 91.92 113.236 91.92C115.476 91.92 118.369 91.78 121.916 91.5C125.556 91.22 129.056 91.08 132.416 91.08C138.109 91.08 143.149 91.8733 147.536 93.46C152.016 94.9533 155.563 97.38 158.176 100.74C160.789 104.1 162.189 108.533 162.376 114.04C162.469 118.893 161.629 123.093 159.856 126.64C158.083 130.187 155.656 133.127 152.576 135.46C149.589 137.7 146.276 139.427 142.636 140.64C138.996 141.76 135.356 142.32 131.716 142.32C130.689 142.32 129.569 142.273 128.356 142.18C127.236 142.087 126.116 141.9 124.996 141.62C124.716 141.527 124.623 141.2 124.716 140.64C124.809 139.987 125.043 139.707 125.416 139.8C126.163 139.987 127.003 140.127 127.936 140.22C128.869 140.313 129.663 140.36 130.316 140.36C133.396 140.36 136.243 139.52 138.856 137.84C141.469 136.16 143.569 133.593 145.156 130.14C146.836 126.687 147.676 122.347 147.676 117.12C147.676 112.173 146.883 107.973 145.296 104.52C143.709 101.067 141.469 98.4533 138.576 96.68C135.776 94.8133 132.323 93.88 128.216 93.88C126.069 93.88 124.389 94.1133 123.176 94.58C121.963 94.9533 121.123 95.7933 120.656 97.1C120.189 98.4067 119.956 100.413 119.956 103.12V167.1ZM184.192 162.06L185.592 94.72L189.372 95L187.832 162.06C187.739 167.007 188.672 170.787 190.632 173.4C192.685 176.013 195.719 177.32 199.732 177.32C200.012 177.32 200.152 177.6 200.152 178.16C200.152 178.72 200.012 179 199.732 179C197.679 179 195.579 178.953 193.432 178.86C191.285 178.767 188.859 178.72 186.152 178.72C183.352 178.72 180.785 178.767 178.452 178.86C176.212 178.953 174.065 179 172.012 179C171.732 179 171.592 178.72 171.592 178.16C171.592 177.6 171.732 177.32 172.012 177.32C175.839 177.32 178.779 176.013 180.832 173.4C182.979 170.787 184.099 167.007 184.192 162.06ZM283.312 177.32C283.499 177.32 283.592 177.6 283.592 178.16C283.592 178.72 283.499 179 283.312 179C280.885 179 278.179 178.953 275.192 178.86C272.205 178.767 269.079 178.72 265.812 178.72C262.545 178.72 259.465 178.767 256.572 178.86C253.772 178.953 251.205 179 248.872 179C248.685 179 248.592 178.72 248.592 178.16C248.592 177.6 248.685 177.32 248.872 177.32C253.352 177.32 256.245 176.713 257.552 175.5C258.859 174.287 259.372 171.673 259.092 167.66L256.152 103.68L262.312 94.02L226.472 178.02C226.379 178.393 226.005 178.58 225.352 178.58C224.699 178.58 224.279 178.393 224.092 178.02L186.152 103.12C182.792 96.4933 178.405 93.18 172.992 93.18C172.712 93.18 172.572 92.9 172.572 92.34C172.572 91.78 172.712 91.5 172.992 91.5C174.765 91.5 176.632 91.5467 178.592 91.64C180.645 91.7333 182.372 91.78 183.772 91.78C185.825 91.78 187.645 91.7333 189.232 91.64C190.912 91.5467 192.219 91.5 193.152 91.5C194.459 91.5 195.439 91.9667 196.092 92.9C196.839 93.74 198.005 95.7 199.592 98.78L231.092 160.52L225.072 171.16L258.252 95C258.812 93.7867 259.419 92.9 260.072 92.34C260.725 91.78 261.519 91.5 262.452 91.5C263.292 91.5 264.179 91.5467 265.112 91.64C266.139 91.7333 267.352 91.78 268.752 91.78C271.552 91.78 273.932 91.7333 275.892 91.64C277.852 91.5467 279.765 91.5 281.632 91.5C281.912 91.5 282.052 91.78 282.052 92.34C282.052 92.9 281.912 93.18 281.632 93.18C277.339 93.18 274.165 93.9733 272.112 95.56C270.059 97.1467 269.125 99.8533 269.312 103.68L272.392 167.66C272.579 170.367 272.905 172.42 273.372 173.82C273.932 175.22 274.959 176.153 276.452 176.62C278.039 177.087 280.325 177.32 283.312 177.32Z" fill="white"/>
<rect x="299" y="84" width="2" height="100" fill="#C8A15A"/>
<path d="M314.466 130V109.636H321.347C322.944 109.636 324.25 109.925 325.264 110.501C326.285 111.071 327.041 111.844 327.531 112.818C328.022 113.793 328.267 114.88 328.267 116.08C328.267 117.279 328.022 118.37 327.531 119.351C327.047 120.332 326.298 121.114 325.284 121.697C324.27 122.274 322.971 122.562 321.386 122.562H316.455V120.375H321.307C322.401 120.375 323.279 120.186 323.942 119.808C324.605 119.43 325.085 118.92 325.384 118.277C325.688 117.627 325.841 116.895 325.841 116.08C325.841 115.264 325.688 114.535 325.384 113.892C325.085 113.249 324.601 112.745 323.932 112.381C323.262 112.009 322.374 111.824 321.267 111.824H316.932V130H314.466ZM338.065 109.636V130H335.599V109.636H338.065ZM345.256 111.824V109.636H360.529V111.824H354.125V130H351.659V111.824H345.256ZM366.581 111.824V109.636H381.853V111.824H375.45V130H372.984V111.824H366.581ZM400.254 130V109.636H407.135C408.732 109.636 410.038 109.925 411.052 110.501C412.073 111.071 412.829 111.844 413.32 112.818C413.81 113.793 414.055 114.88 414.055 116.08C414.055 117.279 413.81 118.37 413.32 119.351C412.836 120.332 412.087 121.114 411.072 121.697C410.058 122.274 408.759 122.562 407.175 122.562H402.243V120.375H407.095C408.189 120.375 409.067 120.186 409.73 119.808C410.393 119.43 410.874 118.92 411.172 118.277C411.477 117.627 411.629 116.895 411.629 116.08C411.629 115.264 411.477 114.535 411.172 113.892C410.874 113.249 410.39 112.745 409.72 112.381C409.051 112.009 408.162 111.824 407.055 111.824H402.72V130H400.254ZM421.388 130V109.636H428.268C429.859 109.636 431.165 109.908 432.186 110.452C433.207 110.989 433.962 111.728 434.453 112.669C434.943 113.61 435.189 114.681 435.189 115.881C435.189 117.08 434.943 118.144 434.453 119.072C433.962 120 433.21 120.73 432.196 121.26C431.182 121.784 429.886 122.045 428.308 122.045H422.74V119.818H428.229C429.316 119.818 430.191 119.659 430.854 119.341C431.523 119.023 432.007 118.572 432.305 117.989C432.61 117.399 432.763 116.696 432.763 115.881C432.763 115.065 432.61 114.353 432.305 113.743C432 113.133 431.513 112.662 430.844 112.331C430.174 111.993 429.289 111.824 428.189 111.824H423.854V130H421.388ZM430.973 120.852L435.984 130H433.121L428.189 120.852H430.973ZM459.84 119.818C459.84 121.966 459.452 123.822 458.676 125.386C457.901 126.951 456.837 128.157 455.484 129.006C454.132 129.854 452.588 130.278 450.851 130.278C449.114 130.278 447.57 129.854 446.217 129.006C444.865 128.157 443.801 126.951 443.026 125.386C442.25 123.822 441.862 121.966 441.862 119.818C441.862 117.67 442.25 115.814 443.026 114.25C443.801 112.686 444.865 111.479 446.217 110.631C447.57 109.782 449.114 109.358 450.851 109.358C452.588 109.358 454.132 109.782 455.484 110.631C456.837 111.479 457.901 112.686 458.676 114.25C459.452 115.814 459.84 117.67 459.84 119.818ZM457.453 119.818C457.453 118.055 457.158 116.567 456.568 115.354C455.985 114.141 455.193 113.223 454.192 112.599C453.198 111.976 452.084 111.665 450.851 111.665C449.618 111.665 448.501 111.976 447.5 112.599C446.506 113.223 445.714 114.141 445.124 115.354C444.54 116.567 444.249 118.055 444.249 119.818C444.249 121.581 444.54 123.07 445.124 124.283C445.714 125.496 446.506 126.414 447.5 127.037C448.501 127.66 449.618 127.972 450.851 127.972C452.084 127.972 453.198 127.66 454.192 127.037C455.193 126.414 455.985 125.496 456.568 124.283C457.158 123.07 457.453 121.581 457.453 119.818ZM467.346 130V109.636H474.227C475.824 109.636 477.13 109.925 478.144 110.501C479.165 111.071 479.921 111.844 480.411 112.818C480.902 113.793 481.147 114.88 481.147 116.08C481.147 117.279 480.902 118.37 480.411 119.351C479.927 120.332 479.178 121.114 478.164 121.697C477.15 122.274 475.851 122.562 474.266 122.562H469.335V120.375H474.187C475.281 120.375 476.159 120.186 476.822 119.808C477.485 119.43 477.965 118.92 478.264 118.277C478.568 117.627 478.721 116.895 478.721 116.08C478.721 115.264 478.568 114.535 478.264 113.892C477.965 113.249 477.481 112.745 476.812 112.381C476.142 112.009 475.254 111.824 474.147 111.824H469.812V130H467.346ZM488.479 130V109.636H500.769V111.824H490.945V118.705H500.133V120.892H490.945V127.812H500.928V130H488.479ZM508.574 130V109.636H515.454C517.045 109.636 518.351 109.908 519.372 110.452C520.393 110.989 521.149 111.728 521.639 112.669C522.13 113.61 522.375 114.681 522.375 115.881C522.375 117.08 522.13 118.144 521.639 119.072C521.149 120 520.396 120.73 519.382 121.26C518.368 121.784 517.072 122.045 515.494 122.045H509.926V119.818H515.415C516.502 119.818 517.377 119.659 518.04 119.341C518.709 119.023 519.193 118.572 519.491 117.989C519.796 117.399 519.949 116.696 519.949 115.881C519.949 115.065 519.796 114.353 519.491 113.743C519.186 113.133 518.699 112.662 518.03 112.331C517.36 111.993 516.475 111.824 515.375 111.824H511.04V130H508.574ZM518.159 120.852L523.17 130H520.307L515.375 120.852H518.159ZM528.73 111.824V109.636H544.003V111.824H537.6V130H535.134V111.824H528.73ZM549.419 109.636H552.243L557.89 119.142H558.129L563.777 109.636H566.601L559.243 121.608V130H556.777V121.608L549.419 109.636ZM314.466 137.636H317.409L324.33 154.54H324.568L331.489 137.636H334.432V158H332.125V142.528H331.926L325.562 158H323.335L316.972 142.528H316.773V158H314.466V137.636ZM346.371 158H343.786L351.263 137.636H353.809L361.286 158H358.701L352.616 140.858H352.457L346.371 158ZM347.326 150.045H357.746V152.233H347.326V150.045ZM386.766 137.636V158H384.379L373.283 142.011H373.084V158H370.618V137.636H373.004L384.141 153.665H384.34V137.636H386.766ZM398.695 158H396.11L403.587 137.636H406.133L413.61 158H411.025L404.94 140.858H404.78L398.695 158ZM399.65 150.045H410.07V152.233H399.65V150.045ZM435.905 144C435.687 143.33 435.398 142.731 435.04 142.2C434.689 141.663 434.268 141.206 433.777 140.828C433.294 140.45 432.743 140.162 432.127 139.963C431.51 139.764 430.834 139.665 430.098 139.665C428.892 139.665 427.795 139.976 426.807 140.599C425.82 141.223 425.034 142.141 424.451 143.354C423.867 144.567 423.576 146.055 423.576 147.818C423.576 149.581 423.871 151.07 424.461 152.283C425.051 153.496 425.849 154.414 426.857 155.037C427.865 155.66 428.998 155.972 430.258 155.972C431.424 155.972 432.452 155.723 433.34 155.226C434.235 154.722 434.931 154.013 435.428 153.098C435.932 152.177 436.184 151.093 436.184 149.847L436.939 150.006H430.814V147.818H438.57V150.006C438.57 151.683 438.212 153.141 437.496 154.381C436.787 155.62 435.806 156.581 434.553 157.264C433.307 157.94 431.875 158.278 430.258 158.278C428.455 158.278 426.87 157.854 425.505 157.006C424.146 156.157 423.085 154.951 422.323 153.386C421.567 151.822 421.189 149.966 421.189 147.818C421.189 146.207 421.405 144.759 421.836 143.473C422.273 142.18 422.89 141.08 423.685 140.172C424.481 139.264 425.422 138.568 426.509 138.084C427.596 137.6 428.793 137.358 430.098 137.358C431.172 137.358 432.173 137.52 433.101 137.845C434.036 138.163 434.868 138.617 435.597 139.207C436.333 139.791 436.946 140.49 437.437 141.305C437.927 142.114 438.265 143.012 438.451 144H435.905ZM448.953 158V137.636H461.243V139.824H451.419V146.705H460.607V148.892H451.419V155.812H461.402V158H448.953ZM471.848 137.636H474.791L481.711 154.54H481.95L488.871 137.636H491.814V158H489.507V142.528H489.308L482.944 158H480.717L474.353 142.528H474.155V158H471.848V137.636ZM502.918 158V137.636H515.208V139.824H505.384V146.705H514.571V148.892H505.384V155.812H515.367V158H502.918ZM541.96 137.636V158H539.574L528.477 142.011H528.278V158H525.812V137.636H528.199L539.335 153.665H539.534V137.636H541.96ZM551.941 139.824V137.636H567.213V139.824H560.81V158H558.344V139.824H551.941Z" fill="white"/>
</svg>
