<svg width="567" height="233" viewBox="0 0 567 233" fill="none" xmlns="http://www.w3.org/2000/svg">
<mask id="path-1-outside-1_4_15" maskUnits="userSpaceOnUse" x="3" y="72" width="268" height="90" fill="black">
<rect fill="white" x="3" y="72" width="268" height="90"/>
<path d="M29.12 149.1C29.12 151.9 29.4467 154.047 30.1 155.54C30.7533 156.94 32.1067 157.92 34.16 158.48C36.3067 159.04 39.48 159.32 43.68 159.32C43.96 159.32 44.1 159.6 44.1 160.16C44.1 160.72 43.96 161 43.68 161C40.6933 161 37.4267 160.953 33.88 160.86C30.4267 160.767 26.6467 160.72 22.54 160.72C19.2733 160.72 16.1467 160.767 13.16 160.86C10.1733 160.953 7.51333 161 5.18 161C4.9 161 4.76 160.72 4.76 160.16C4.76 159.6 4.9 159.32 5.18 159.32C8.26 159.32 10.5467 159.087 12.04 158.62C13.5333 158.153 14.5133 157.22 14.98 155.82C15.54 154.42 15.82 152.367 15.82 149.66V84.84C15.82 82.1333 15.54 80.1267 14.98 78.82C14.5133 77.42 13.5333 76.4867 12.04 76.02C10.5467 75.46 8.26 75.18 5.18 75.18C4.9 75.18 4.76 74.9 4.76 74.34C4.76 73.78 4.9 73.5 5.18 73.5C7.51333 73.5 10.1267 73.5933 13.02 73.78C16.0067 73.8733 19.1333 73.92 22.4 73.92C24.64 73.92 27.5333 73.78 31.08 73.5C34.72 73.22 38.22 73.08 41.58 73.08C47.2733 73.08 52.3133 73.8733 56.7 75.46C61.18 76.9533 64.7267 79.38 67.34 82.74C69.9533 86.1 71.3533 90.5333 71.54 96.04C71.6333 100.893 70.7933 105.093 69.02 108.64C67.2467 112.187 64.82 115.127 61.74 117.46C58.7533 119.7 55.44 121.427 51.8 122.64C48.16 123.76 44.52 124.32 40.88 124.32C39.8533 124.32 38.7333 124.273 37.52 124.18C36.4 124.087 35.28 123.9 34.16 123.62C33.88 123.527 33.7867 123.2 33.88 122.64C33.9733 121.987 34.2067 121.707 34.58 121.8C35.3267 121.987 36.1667 122.127 37.1 122.22C38.0333 122.313 38.8267 122.36 39.48 122.36C42.56 122.36 45.4067 121.52 48.02 119.84C50.6333 118.16 52.7333 115.593 54.32 112.14C56 108.687 56.84 104.347 56.84 99.12C56.84 94.1733 56.0467 89.9733 54.46 86.52C52.8733 83.0667 50.6333 80.4533 47.74 78.68C44.94 76.8133 41.4867 75.88 37.38 75.88C35.2333 75.88 33.5533 76.1133 32.34 76.58C31.1267 76.9533 30.2867 77.7933 29.82 79.1C29.3533 80.4067 29.12 82.4133 29.12 85.12V149.1ZM105.956 149.1C105.956 151.9 106.283 154.047 106.936 155.54C107.589 156.94 108.943 157.92 110.996 158.48C113.143 159.04 116.316 159.32 120.516 159.32C120.796 159.32 120.936 159.6 120.936 160.16C120.936 160.72 120.796 161 120.516 161C117.529 161 114.263 160.953 110.716 160.86C107.263 160.767 103.483 160.72 99.3759 160.72C96.1093 160.72 92.9826 160.767 89.9959 160.86C87.0093 160.953 84.3493 161 82.0159 161C81.7359 161 81.5959 160.72 81.5959 160.16C81.5959 159.6 81.7359 159.32 82.0159 159.32C85.0959 159.32 87.3826 159.087 88.8759 158.62C90.3693 158.153 91.3493 157.22 91.8159 155.82C92.3759 154.42 92.6559 152.367 92.6559 149.66V84.84C92.6559 82.1333 92.3759 80.1267 91.8159 78.82C91.3493 77.42 90.3693 76.4867 88.8759 76.02C87.3826 75.46 85.0959 75.18 82.0159 75.18C81.7359 75.18 81.5959 74.9 81.5959 74.34C81.5959 73.78 81.7359 73.5 82.0159 73.5C84.3493 73.5 86.9626 73.5933 89.8559 73.78C92.8426 73.8733 95.9693 73.92 99.2359 73.92C101.476 73.92 104.369 73.78 107.916 73.5C111.556 73.22 115.056 73.08 118.416 73.08C124.109 73.08 129.149 73.8733 133.536 75.46C138.016 76.9533 141.563 79.38 144.176 82.74C146.789 86.1 148.189 90.5333 148.376 96.04C148.469 100.893 147.629 105.093 145.856 108.64C144.083 112.187 141.656 115.127 138.576 117.46C135.589 119.7 132.276 121.427 128.636 122.64C124.996 123.76 121.356 124.32 117.716 124.32C116.689 124.32 115.569 124.273 114.356 124.18C113.236 124.087 112.116 123.9 110.996 123.62C110.716 123.527 110.623 123.2 110.716 122.64C110.809 121.987 111.043 121.707 111.416 121.8C112.163 121.987 113.003 122.127 113.936 122.22C114.869 122.313 115.663 122.36 116.316 122.36C119.396 122.36 122.243 121.52 124.856 119.84C127.469 118.16 129.569 115.593 131.156 112.14C132.836 108.687 133.676 104.347 133.676 99.12C133.676 94.1733 132.883 89.9733 131.296 86.52C129.709 83.0667 127.469 80.4533 124.576 78.68C121.776 76.8133 118.323 75.88 114.216 75.88C112.069 75.88 110.389 76.1133 109.176 76.58C107.963 76.9533 107.123 77.7933 106.656 79.1C106.189 80.4067 105.956 82.4133 105.956 85.12V149.1ZM170.192 144.06L171.592 76.72L175.372 77L173.832 144.06C173.739 149.007 174.672 152.787 176.632 155.4C178.685 158.013 181.719 159.32 185.732 159.32C186.012 159.32 186.152 159.6 186.152 160.16C186.152 160.72 186.012 161 185.732 161C183.679 161 181.579 160.953 179.432 160.86C177.285 160.767 174.859 160.72 172.152 160.72C169.352 160.72 166.785 160.767 164.452 160.86C162.212 160.953 160.065 161 158.012 161C157.732 161 157.592 160.72 157.592 160.16C157.592 159.6 157.732 159.32 158.012 159.32C161.839 159.32 164.779 158.013 166.832 155.4C168.979 152.787 170.099 149.007 170.192 144.06ZM269.312 159.32C269.499 159.32 269.592 159.6 269.592 160.16C269.592 160.72 269.499 161 269.312 161C266.885 161 264.179 160.953 261.192 160.86C258.205 160.767 255.079 160.72 251.812 160.72C248.545 160.72 245.465 160.767 242.572 160.86C239.772 160.953 237.205 161 234.872 161C234.685 161 234.592 160.72 234.592 160.16C234.592 159.6 234.685 159.32 234.872 159.32C239.352 159.32 242.245 158.713 243.552 157.5C244.859 156.287 245.372 153.673 245.092 149.66L242.152 85.68L248.312 76.02L212.472 160.02C212.379 160.393 212.005 160.58 211.352 160.58C210.699 160.58 210.279 160.393 210.092 160.02L172.152 85.12C168.792 78.4933 164.405 75.18 158.992 75.18C158.712 75.18 158.572 74.9 158.572 74.34C158.572 73.78 158.712 73.5 158.992 73.5C160.765 73.5 162.632 73.5467 164.592 73.64C166.645 73.7333 168.372 73.78 169.772 73.78C171.825 73.78 173.645 73.7333 175.232 73.64C176.912 73.5467 178.219 73.5 179.152 73.5C180.459 73.5 181.439 73.9667 182.092 74.9C182.839 75.74 184.005 77.7 185.592 80.78L217.092 142.52L211.072 153.16L244.252 77C244.812 75.7867 245.419 74.9 246.072 74.34C246.725 73.78 247.519 73.5 248.452 73.5C249.292 73.5 250.179 73.5467 251.112 73.64C252.139 73.7333 253.352 73.78 254.752 73.78C257.552 73.78 259.932 73.7333 261.892 73.64C263.852 73.5467 265.765 73.5 267.632 73.5C267.912 73.5 268.052 73.78 268.052 74.34C268.052 74.9 267.912 75.18 267.632 75.18C263.339 75.18 260.165 75.9733 258.112 77.56C256.059 79.1467 255.125 81.8533 255.312 85.68L258.392 149.66C258.579 152.367 258.905 154.42 259.372 155.82C259.932 157.22 260.959 158.153 262.452 158.62C264.039 159.087 266.325 159.32 269.312 159.32Z"/>
</mask>
<path d="M29.12 149.1C29.12 151.9 29.4467 154.047 30.1 155.54C30.7533 156.94 32.1067 157.92 34.16 158.48C36.3067 159.04 39.48 159.32 43.68 159.32C43.96 159.32 44.1 159.6 44.1 160.16C44.1 160.72 43.96 161 43.68 161C40.6933 161 37.4267 160.953 33.88 160.86C30.4267 160.767 26.6467 160.72 22.54 160.72C19.2733 160.72 16.1467 160.767 13.16 160.86C10.1733 160.953 7.51333 161 5.18 161C4.9 161 4.76 160.72 4.76 160.16C4.76 159.6 4.9 159.32 5.18 159.32C8.26 159.32 10.5467 159.087 12.04 158.62C13.5333 158.153 14.5133 157.22 14.98 155.82C15.54 154.42 15.82 152.367 15.82 149.66V84.84C15.82 82.1333 15.54 80.1267 14.98 78.82C14.5133 77.42 13.5333 76.4867 12.04 76.02C10.5467 75.46 8.26 75.18 5.18 75.18C4.9 75.18 4.76 74.9 4.76 74.34C4.76 73.78 4.9 73.5 5.18 73.5C7.51333 73.5 10.1267 73.5933 13.02 73.78C16.0067 73.8733 19.1333 73.92 22.4 73.92C24.64 73.92 27.5333 73.78 31.08 73.5C34.72 73.22 38.22 73.08 41.58 73.08C47.2733 73.08 52.3133 73.8733 56.7 75.46C61.18 76.9533 64.7267 79.38 67.34 82.74C69.9533 86.1 71.3533 90.5333 71.54 96.04C71.6333 100.893 70.7933 105.093 69.02 108.64C67.2467 112.187 64.82 115.127 61.74 117.46C58.7533 119.7 55.44 121.427 51.8 122.64C48.16 123.76 44.52 124.32 40.88 124.32C39.8533 124.32 38.7333 124.273 37.52 124.18C36.4 124.087 35.28 123.9 34.16 123.62C33.88 123.527 33.7867 123.2 33.88 122.64C33.9733 121.987 34.2067 121.707 34.58 121.8C35.3267 121.987 36.1667 122.127 37.1 122.22C38.0333 122.313 38.8267 122.36 39.48 122.36C42.56 122.36 45.4067 121.52 48.02 119.84C50.6333 118.16 52.7333 115.593 54.32 112.14C56 108.687 56.84 104.347 56.84 99.12C56.84 94.1733 56.0467 89.9733 54.46 86.52C52.8733 83.0667 50.6333 80.4533 47.74 78.68C44.94 76.8133 41.4867 75.88 37.38 75.88C35.2333 75.88 33.5533 76.1133 32.34 76.58C31.1267 76.9533 30.2867 77.7933 29.82 79.1C29.3533 80.4067 29.12 82.4133 29.12 85.12V149.1ZM105.956 149.1C105.956 151.9 106.283 154.047 106.936 155.54C107.589 156.94 108.943 157.92 110.996 158.48C113.143 159.04 116.316 159.32 120.516 159.32C120.796 159.32 120.936 159.6 120.936 160.16C120.936 160.72 120.796 161 120.516 161C117.529 161 114.263 160.953 110.716 160.86C107.263 160.767 103.483 160.72 99.3759 160.72C96.1093 160.72 92.9826 160.767 89.9959 160.86C87.0093 160.953 84.3493 161 82.0159 161C81.7359 161 81.5959 160.72 81.5959 160.16C81.5959 159.6 81.7359 159.32 82.0159 159.32C85.0959 159.32 87.3826 159.087 88.8759 158.62C90.3693 158.153 91.3493 157.22 91.8159 155.82C92.3759 154.42 92.6559 152.367 92.6559 149.66V84.84C92.6559 82.1333 92.3759 80.1267 91.8159 78.82C91.3493 77.42 90.3693 76.4867 88.8759 76.02C87.3826 75.46 85.0959 75.18 82.0159 75.18C81.7359 75.18 81.5959 74.9 81.5959 74.34C81.5959 73.78 81.7359 73.5 82.0159 73.5C84.3493 73.5 86.9626 73.5933 89.8559 73.78C92.8426 73.8733 95.9693 73.92 99.2359 73.92C101.476 73.92 104.369 73.78 107.916 73.5C111.556 73.22 115.056 73.08 118.416 73.08C124.109 73.08 129.149 73.8733 133.536 75.46C138.016 76.9533 141.563 79.38 144.176 82.74C146.789 86.1 148.189 90.5333 148.376 96.04C148.469 100.893 147.629 105.093 145.856 108.64C144.083 112.187 141.656 115.127 138.576 117.46C135.589 119.7 132.276 121.427 128.636 122.64C124.996 123.76 121.356 124.32 117.716 124.32C116.689 124.32 115.569 124.273 114.356 124.18C113.236 124.087 112.116 123.9 110.996 123.62C110.716 123.527 110.623 123.2 110.716 122.64C110.809 121.987 111.043 121.707 111.416 121.8C112.163 121.987 113.003 122.127 113.936 122.22C114.869 122.313 115.663 122.36 116.316 122.36C119.396 122.36 122.243 121.52 124.856 119.84C127.469 118.16 129.569 115.593 131.156 112.14C132.836 108.687 133.676 104.347 133.676 99.12C133.676 94.1733 132.883 89.9733 131.296 86.52C129.709 83.0667 127.469 80.4533 124.576 78.68C121.776 76.8133 118.323 75.88 114.216 75.88C112.069 75.88 110.389 76.1133 109.176 76.58C107.963 76.9533 107.123 77.7933 106.656 79.1C106.189 80.4067 105.956 82.4133 105.956 85.12V149.1ZM170.192 144.06L171.592 76.72L175.372 77L173.832 144.06C173.739 149.007 174.672 152.787 176.632 155.4C178.685 158.013 181.719 159.32 185.732 159.32C186.012 159.32 186.152 159.6 186.152 160.16C186.152 160.72 186.012 161 185.732 161C183.679 161 181.579 160.953 179.432 160.86C177.285 160.767 174.859 160.72 172.152 160.72C169.352 160.72 166.785 160.767 164.452 160.86C162.212 160.953 160.065 161 158.012 161C157.732 161 157.592 160.72 157.592 160.16C157.592 159.6 157.732 159.32 158.012 159.32C161.839 159.32 164.779 158.013 166.832 155.4C168.979 152.787 170.099 149.007 170.192 144.06ZM269.312 159.32C269.499 159.32 269.592 159.6 269.592 160.16C269.592 160.72 269.499 161 269.312 161C266.885 161 264.179 160.953 261.192 160.86C258.205 160.767 255.079 160.72 251.812 160.72C248.545 160.72 245.465 160.767 242.572 160.86C239.772 160.953 237.205 161 234.872 161C234.685 161 234.592 160.72 234.592 160.16C234.592 159.6 234.685 159.32 234.872 159.32C239.352 159.32 242.245 158.713 243.552 157.5C244.859 156.287 245.372 153.673 245.092 149.66L242.152 85.68L248.312 76.02L212.472 160.02C212.379 160.393 212.005 160.58 211.352 160.58C210.699 160.58 210.279 160.393 210.092 160.02L172.152 85.12C168.792 78.4933 164.405 75.18 158.992 75.18C158.712 75.18 158.572 74.9 158.572 74.34C158.572 73.78 158.712 73.5 158.992 73.5C160.765 73.5 162.632 73.5467 164.592 73.64C166.645 73.7333 168.372 73.78 169.772 73.78C171.825 73.78 173.645 73.7333 175.232 73.64C176.912 73.5467 178.219 73.5 179.152 73.5C180.459 73.5 181.439 73.9667 182.092 74.9C182.839 75.74 184.005 77.7 185.592 80.78L217.092 142.52L211.072 153.16L244.252 77C244.812 75.7867 245.419 74.9 246.072 74.34C246.725 73.78 247.519 73.5 248.452 73.5C249.292 73.5 250.179 73.5467 251.112 73.64C252.139 73.7333 253.352 73.78 254.752 73.78C257.552 73.78 259.932 73.7333 261.892 73.64C263.852 73.5467 265.765 73.5 267.632 73.5C267.912 73.5 268.052 73.78 268.052 74.34C268.052 74.9 267.912 75.18 267.632 75.18C263.339 75.18 260.165 75.9733 258.112 77.56C256.059 79.1467 255.125 81.8533 255.312 85.68L258.392 149.66C258.579 152.367 258.905 154.42 259.372 155.82C259.932 157.22 260.959 158.153 262.452 158.62C264.039 159.087 266.325 159.32 269.312 159.32Z" fill="#0F1D35"/>
<path d="M30.1 155.54L29.1838 155.941L29.1887 155.952L29.1938 155.963L30.1 155.54ZM34.16 158.48L33.8969 159.445L33.9076 159.448L34.16 158.48ZM33.88 160.86L33.853 161.86L33.8537 161.86L33.88 160.86ZM13.16 160.86L13.1912 161.86L13.16 160.86ZM14.98 155.82L14.0515 155.449L14.0406 155.476L14.0313 155.504L14.98 155.82ZM14.98 78.82L14.0313 79.1362L14.0445 79.1757L14.0609 79.2139L14.98 78.82ZM12.04 76.02L11.6889 76.9563L11.715 76.9661L11.7417 76.9745L12.04 76.02ZM13.02 73.78L12.9556 74.7779L12.9722 74.779L12.9888 74.7795L13.02 73.78ZM31.08 73.5L31.0033 72.5029L31.0013 72.5031L31.08 73.5ZM56.7 75.46L56.3599 76.4004L56.3718 76.4047L56.3838 76.4087L56.7 75.46ZM67.34 82.74L68.1294 82.1261V82.1261L67.34 82.74ZM71.54 96.04L72.5398 96.0208L72.5397 96.0134L72.5394 96.0061L71.54 96.04ZM69.02 108.64L69.9144 109.087V109.087L69.02 108.64ZM61.74 117.46L62.34 118.26L62.3439 118.257L61.74 117.46ZM51.8 122.64L52.0941 123.596L52.1052 123.592L52.1162 123.589L51.8 122.64ZM37.52 124.18L37.437 125.177L37.4433 125.177L37.52 124.18ZM34.16 123.62L33.8438 124.569L33.8802 124.581L33.9175 124.59L34.16 123.62ZM33.88 122.64L34.8664 122.804L34.8683 122.793L34.87 122.781L33.88 122.64ZM34.58 121.8L34.3375 122.77H34.3375L34.58 121.8ZM37.1 122.22L37.0005 123.215H37.0005L37.1 122.22ZM48.02 119.84L48.5608 120.681V120.681L48.02 119.84ZM54.32 112.14L53.4208 111.703L53.4159 111.712L53.4113 111.723L54.32 112.14ZM54.46 86.52L55.3687 86.1025V86.1025L54.46 86.52ZM47.74 78.68L47.1853 79.512L47.2012 79.5226L47.2174 79.5326L47.74 78.68ZM32.34 76.58L32.6341 77.5358L32.6669 77.5257L32.699 77.5133L32.34 76.58ZM29.82 79.1L30.7617 79.4363V79.4363L29.82 79.1ZM29.12 149.1H28.12C28.12 151.953 28.4491 154.261 29.1838 155.941L30.1 155.54L31.0162 155.139C30.4443 153.832 30.12 151.847 30.12 149.1H29.12ZM30.1 155.54L29.1938 155.963C30.0135 157.719 31.6723 158.838 33.8969 159.445L34.16 158.48L34.4231 157.515C32.541 157.002 31.4932 156.161 31.0062 155.117L30.1 155.54ZM34.16 158.48L33.9076 159.448C36.1802 160.04 39.4562 160.32 43.68 160.32V159.32V158.32C39.5038 158.32 36.4331 158.04 34.4124 157.512L34.16 158.48ZM43.68 159.32V160.32C43.575 160.32 43.4385 160.291 43.3091 160.205C43.1858 160.122 43.1249 160.026 43.1006 159.977C43.0782 159.932 43.0808 159.917 43.0874 159.957C43.0935 159.994 43.1 160.059 43.1 160.16H44.1H45.1C45.1 159.829 45.0639 159.432 44.8894 159.083C44.7951 158.894 44.6467 158.693 44.4184 158.54C44.184 158.384 43.925 158.32 43.68 158.32V159.32ZM44.1 160.16H43.1C43.1 160.261 43.0935 160.326 43.0874 160.363C43.0808 160.403 43.0782 160.387 43.1006 160.343C43.1249 160.294 43.1858 160.198 43.3091 160.115C43.4385 160.029 43.575 160 43.68 160V161V162C43.925 162 44.184 161.936 44.4184 161.78C44.6467 161.627 44.7951 161.426 44.8894 161.237C45.0639 160.888 45.1 160.491 45.1 160.16H44.1ZM43.68 161V160C40.7035 160 37.4458 159.953 33.9063 159.86L33.88 160.86L33.8537 161.86C37.4076 161.953 40.6831 162 43.68 162V161ZM33.88 160.86L33.907 159.86C30.4432 159.767 26.6541 159.72 22.54 159.72V160.72V161.72C26.6393 161.72 30.4101 161.767 33.853 161.86L33.88 160.86ZM22.54 160.72V159.72C19.2639 159.72 16.1267 159.767 13.1288 159.86L13.16 160.86L13.1912 161.86C16.1666 161.767 19.2828 161.72 22.54 161.72V160.72ZM13.16 160.86L13.1288 159.86C10.1498 159.954 7.50051 160 5.18 160V161V162C7.52615 162 10.1969 161.953 13.1912 161.86L13.16 160.86ZM5.18 161V160C5.28498 160 5.42146 160.029 5.55095 160.115C5.67419 160.198 5.73511 160.294 5.75943 160.343C5.78178 160.387 5.77923 160.403 5.77264 160.363C5.76651 160.326 5.76 160.261 5.76 160.16H4.76H3.76C3.76 160.491 3.79609 160.888 3.97057 161.237C4.06489 161.426 4.21331 161.627 4.44155 161.78C4.67604 161.936 4.93502 162 5.18 162V161ZM4.76 160.16H5.76C5.76 160.059 5.76651 159.994 5.77264 159.957C5.77923 159.917 5.78178 159.932 5.75943 159.977C5.73511 160.026 5.67419 160.122 5.55095 160.205C5.42146 160.291 5.28498 160.32 5.18 160.32V159.32V158.32C4.93502 158.32 4.67604 158.384 4.44155 158.54C4.21331 158.693 4.06489 158.894 3.97057 159.083C3.79609 159.432 3.76 159.829 3.76 160.16H4.76ZM5.18 159.32V160.32C8.28314 160.32 10.6948 160.088 12.3383 159.574L12.04 158.62L11.7417 157.666C10.3985 158.085 8.23686 158.32 5.18 158.32V159.32ZM12.04 158.62L12.3383 159.574C14.1167 159.019 15.3534 157.862 15.9287 156.136L14.98 155.82L14.0313 155.504C13.6733 156.578 12.95 157.288 11.7417 157.666L12.04 158.62ZM14.98 155.82L15.9085 156.191C16.5394 154.614 16.82 152.409 16.82 149.66H15.82H14.82C14.82 152.324 14.5406 154.226 14.0515 155.449L14.98 155.82ZM15.82 149.66H16.82V84.84H15.82H14.82V149.66H15.82ZM15.82 84.84H16.82C16.82 82.0982 16.5414 79.9246 15.8991 78.4261L14.98 78.82L14.0609 79.2139C14.5386 80.3287 14.82 82.1685 14.82 84.84H15.82ZM14.98 78.82L15.9287 78.5038C15.3534 76.7779 14.1167 75.6213 12.3383 75.0655L12.04 76.02L11.7417 76.9745C12.95 77.3521 13.6733 78.0621 14.0313 79.1362L14.98 78.82ZM12.04 76.02L12.3911 75.0837C10.7241 74.4585 8.28961 74.18 5.18 74.18V75.18V76.18C8.23039 76.18 10.3692 76.4614 11.6889 76.9563L12.04 76.02ZM5.18 75.18V74.18C5.28498 74.18 5.42145 74.2091 5.55095 74.2954C5.67418 74.3776 5.73511 74.4742 5.75943 74.5228C5.78178 74.5675 5.77923 74.5826 5.77264 74.5431C5.76651 74.5063 5.76 74.441 5.76 74.34H4.76H3.76C3.76 74.6711 3.79609 75.0682 3.97057 75.4172C4.06489 75.6058 4.21332 75.8074 4.44155 75.9595C4.67605 76.1159 4.93502 76.18 5.18 76.18V75.18ZM4.76 74.34H5.76C5.76 74.239 5.76651 74.1737 5.77264 74.1369C5.77923 74.0974 5.78178 74.1125 5.75943 74.1572C5.73511 74.2058 5.67418 74.3024 5.55095 74.3846C5.42145 74.4709 5.28498 74.5 5.18 74.5V73.5V72.5C4.93502 72.5 4.67605 72.5641 4.44155 72.7205C4.21332 72.8726 4.06489 73.0742 3.97057 73.2628C3.79609 73.6117 3.76 74.0089 3.76 74.34H4.76ZM5.18 73.5V74.5C7.48746 74.5 10.0788 74.5923 12.9556 74.7779L13.02 73.78L13.0844 72.7821C10.1745 72.5943 7.53921 72.5 5.18 72.5V73.5ZM13.02 73.78L12.9888 74.7795C15.9867 74.8732 19.1239 74.92 22.4 74.92V73.92V72.92C19.1428 72.92 16.0266 72.8735 13.0512 72.7805L13.02 73.78ZM22.4 73.92V74.92C24.6769 74.92 27.5991 74.7779 31.1587 74.4969L31.08 73.5L31.0013 72.5031C27.4675 72.7821 24.6031 72.92 22.4 72.92V73.92ZM31.08 73.5L31.1567 74.4971C34.7733 74.2188 38.2477 74.08 41.58 74.08V73.08V72.08C38.1923 72.08 34.6667 72.2211 31.0033 72.5029L31.08 73.5ZM41.58 73.08V74.08C47.1821 74.08 52.1033 74.8608 56.3599 76.4004L56.7 75.46L57.0401 74.5196C52.5234 72.8859 47.3646 72.08 41.58 72.08V73.08ZM56.7 75.46L56.3838 76.4087C60.6978 77.8467 64.0716 80.1666 66.5507 83.3539L67.34 82.74L68.1294 82.1261C65.3817 78.5934 61.6622 76.06 57.0162 74.5113L56.7 75.46ZM67.34 82.74L66.5507 83.3539C69.0011 86.5045 70.3589 90.7159 70.5406 96.0739L71.54 96.04L72.5394 96.0061C72.3477 90.3508 70.9056 85.6955 68.1294 82.1261L67.34 82.74ZM71.54 96.04L70.5402 96.0592C70.6311 100.787 69.8121 104.82 68.1256 108.193L69.02 108.64L69.9144 109.087C71.7746 105.367 72.6356 101 72.5398 96.0208L71.54 96.04ZM69.02 108.64L68.1256 108.193C66.4191 111.606 64.0904 114.425 61.1361 116.663L61.74 117.46L62.3439 118.257C65.5496 115.829 68.0743 112.768 69.9144 109.087L69.02 108.64ZM61.74 117.46L61.14 116.66C58.2417 118.834 55.0247 120.511 51.4838 121.691L51.8 122.64L52.1162 123.589C55.8553 122.342 59.265 120.566 62.34 118.26L61.74 117.46ZM51.8 122.64L51.5059 121.684C47.9568 122.776 44.4158 123.32 40.88 123.32V124.32V125.32C44.6242 125.32 48.3632 124.744 52.0941 123.596L51.8 122.64ZM40.88 124.32V123.32C39.8831 123.32 38.789 123.275 37.5967 123.183L37.52 124.18L37.4433 125.177C38.6776 125.272 39.8236 125.32 40.88 125.32V124.32ZM37.52 124.18L37.603 123.183C36.5383 123.095 35.4716 122.917 34.4025 122.65L34.16 123.62L33.9175 124.59C35.0884 124.883 36.2617 125.079 37.437 125.177L37.52 124.18ZM34.16 123.62L34.4762 122.671C34.5637 122.7 34.6568 122.757 34.7324 122.842C34.8041 122.923 34.8321 122.997 34.8415 123.03C34.8501 123.06 34.845 123.061 34.845 123.016C34.845 122.973 34.8497 122.904 34.8664 122.804L33.88 122.64L32.8936 122.476C32.8368 122.816 32.8125 123.209 32.9185 123.58C33.04 124.005 33.3395 124.401 33.8438 124.569L34.16 123.62ZM33.88 122.64L34.87 122.781C34.8869 122.662 34.9065 122.589 34.9201 122.55C34.9346 122.509 34.9334 122.532 34.8932 122.58C34.8463 122.636 34.7561 122.714 34.6203 122.756C34.4882 122.796 34.3833 122.782 34.3375 122.77L34.58 121.8L34.8225 120.83C34.59 120.772 34.3159 120.757 34.0322 120.844C33.7447 120.933 33.5203 121.104 33.3568 121.3C33.0594 121.657 32.9447 122.116 32.8901 122.499L33.88 122.64ZM34.58 121.8L34.3375 122.77C35.14 122.971 36.029 123.118 37.0005 123.215L37.1 122.22L37.1995 121.225C36.3044 121.135 35.5133 121.003 34.8225 120.83L34.58 121.8ZM37.1 122.22L37.0005 123.215C37.954 123.31 38.7826 123.36 39.48 123.36V122.36V121.36C38.8707 121.36 38.1127 121.316 37.1995 121.225L37.1 122.22ZM39.48 122.36V123.36C42.7535 123.36 45.7876 122.464 48.5608 120.681L48.02 119.84L47.4792 118.999C45.0257 120.576 42.3665 121.36 39.48 121.36V122.36ZM48.02 119.84L48.5608 120.681C51.3672 118.877 53.5802 116.145 55.2287 112.557L54.32 112.14L53.4113 111.723C51.8865 115.041 49.8995 117.443 47.4792 118.999L48.02 119.84ZM54.32 112.14L55.2192 112.577C56.985 108.948 57.84 104.446 57.84 99.12H56.84H55.84C55.84 104.247 55.015 108.425 53.4208 111.703L54.32 112.14ZM56.84 99.12H57.84C57.84 94.0709 57.0308 89.72 55.3687 86.1025L54.46 86.52L53.5513 86.9375C55.0626 90.2267 55.84 94.2758 55.84 99.12H56.84ZM54.46 86.52L55.3687 86.1025C53.7096 82.4915 51.3447 79.7165 48.2626 77.8274L47.74 78.68L47.2174 79.5326C49.9219 81.1902 52.0371 83.6419 53.5513 86.9375L54.46 86.52ZM47.74 78.68L48.2947 77.848C45.2974 75.8497 41.6402 74.88 37.38 74.88V75.88V76.88C41.3332 76.88 44.5827 77.7769 47.1853 79.512L47.74 78.68ZM37.38 75.88V74.88C35.18 74.88 33.3595 75.1165 31.981 75.6466L32.34 76.58L32.699 77.5133C33.7472 77.1102 35.2867 76.88 37.38 76.88V75.88ZM32.34 76.58L32.0459 75.6242C30.5 76.0999 29.4396 77.1919 28.8783 78.7637L29.82 79.1L30.7617 79.4363C31.1337 78.3948 31.7533 77.8068 32.6341 77.5358L32.34 76.58ZM29.82 79.1L28.8783 78.7637C28.3518 80.2378 28.12 82.3862 28.12 85.12H29.12H30.12C30.12 82.4404 30.3549 80.5755 30.7617 79.4363L29.82 79.1ZM29.12 85.12H28.12V149.1H29.12H30.12V85.12H29.12ZM106.936 155.54L106.02 155.941L106.025 155.952L106.03 155.963L106.936 155.54ZM110.996 158.48L110.733 159.445L110.744 159.448L110.996 158.48ZM110.716 160.86L110.689 161.86L110.69 161.86L110.716 160.86ZM89.9959 160.86L90.0272 161.86L89.9959 160.86ZM91.8159 155.82L90.8875 155.449L90.8765 155.476L90.8673 155.504L91.8159 155.82ZM91.8159 78.82L90.8673 79.1362L90.8804 79.1757L90.8968 79.2139L91.8159 78.82ZM88.8759 76.02L88.5248 76.9563L88.551 76.9661L88.5777 76.9745L88.8759 76.02ZM89.8559 73.78L89.7916 74.7779L89.8081 74.779L89.8247 74.7795L89.8559 73.78ZM107.916 73.5L107.839 72.5029L107.837 72.5031L107.916 73.5ZM133.536 75.46L133.196 76.4004L133.208 76.4047L133.22 76.4087L133.536 75.46ZM144.176 82.74L144.965 82.1261V82.1261L144.176 82.74ZM148.376 96.04L149.376 96.0208L149.376 96.0134L149.375 96.0061L148.376 96.04ZM145.856 108.64L146.75 109.087V109.087L145.856 108.64ZM138.576 117.46L139.176 118.26L139.18 118.257L138.576 117.46ZM128.636 122.64L128.93 123.596L128.941 123.592L128.952 123.589L128.636 122.64ZM114.356 124.18L114.273 125.177L114.279 125.177L114.356 124.18ZM110.996 123.62L110.68 124.569L110.716 124.581L110.753 124.59L110.996 123.62ZM110.716 122.64L111.702 122.804L111.704 122.793L111.706 122.781L110.716 122.64ZM111.416 121.8L111.173 122.77V122.77L111.416 121.8ZM113.936 122.22L113.836 123.215H113.836L113.936 122.22ZM124.856 119.84L125.397 120.681V120.681L124.856 119.84ZM131.156 112.14L130.257 111.703L130.252 111.712L130.247 111.723L131.156 112.14ZM131.296 86.52L132.205 86.1025V86.1025L131.296 86.52ZM124.576 78.68L124.021 79.512L124.037 79.5226L124.053 79.5326L124.576 78.68ZM109.176 76.58L109.47 77.5358L109.503 77.5257L109.535 77.5133L109.176 76.58ZM106.656 79.1L107.598 79.4363V79.4363L106.656 79.1ZM105.956 149.1H104.956C104.956 151.953 105.285 154.261 106.02 155.941L106.936 155.54L107.852 155.139C107.28 153.832 106.956 151.847 106.956 149.1H105.956ZM106.936 155.54L106.03 155.963C106.849 157.719 108.508 158.838 110.733 159.445L110.996 158.48L111.259 157.515C109.377 157.002 108.329 156.161 107.842 155.117L106.936 155.54ZM110.996 158.48L110.744 159.448C113.016 160.04 116.292 160.32 120.516 160.32V159.32V158.32C116.34 158.32 113.269 158.04 111.248 157.512L110.996 158.48ZM120.516 159.32V160.32C120.411 160.32 120.274 160.291 120.145 160.205C120.022 160.122 119.961 160.026 119.937 159.977C119.914 159.932 119.917 159.917 119.923 159.957C119.929 159.994 119.936 160.059 119.936 160.16H120.936H121.936C121.936 159.829 121.9 159.432 121.725 159.083C121.631 158.894 121.483 158.693 121.254 158.54C121.02 158.384 120.761 158.32 120.516 158.32V159.32ZM120.936 160.16H119.936C119.936 160.261 119.929 160.326 119.923 160.363C119.917 160.403 119.914 160.387 119.937 160.343C119.961 160.294 120.022 160.198 120.145 160.115C120.274 160.029 120.411 160 120.516 160V161V162C120.761 162 121.02 161.936 121.254 161.78C121.483 161.627 121.631 161.426 121.725 161.237C121.9 160.888 121.936 160.491 121.936 160.16H120.936ZM120.516 161V160C117.539 160 114.282 159.953 110.742 159.86L110.716 160.86L110.69 161.86C114.243 161.953 117.519 162 120.516 162V161ZM110.716 160.86L110.743 159.86C107.279 159.767 103.49 159.72 99.3759 159.72V160.72V161.72C103.475 161.72 107.246 161.767 110.689 161.86L110.716 160.86ZM99.3759 160.72V159.72C96.0998 159.72 92.9627 159.767 89.9647 159.86L89.9959 160.86L90.0272 161.86C93.0025 161.767 96.1187 161.72 99.3759 161.72V160.72ZM89.9959 160.86L89.9647 159.86C86.9857 159.954 84.3364 160 82.0159 160V161V162C84.3621 162 87.0328 161.953 90.0272 161.86L89.9959 160.86ZM82.0159 161V160C82.1209 160 82.2574 160.029 82.3869 160.115C82.5101 160.198 82.5711 160.294 82.5954 160.343C82.6177 160.387 82.6152 160.403 82.6086 160.363C82.6024 160.326 82.5959 160.261 82.5959 160.16H81.5959H80.5959C80.5959 160.491 80.632 160.888 80.8065 161.237C80.9008 161.426 81.0493 161.627 81.2775 161.78C81.512 161.936 81.771 162 82.0159 162V161ZM81.5959 160.16H82.5959C82.5959 160.059 82.6024 159.994 82.6086 159.957C82.6152 159.917 82.6177 159.932 82.5954 159.977C82.5711 160.026 82.5101 160.122 82.3869 160.205C82.2574 160.291 82.1209 160.32 82.0159 160.32V159.32V158.32C81.771 158.32 81.512 158.384 81.2775 158.54C81.0493 158.693 80.9008 158.894 80.8065 159.083C80.632 159.432 80.5959 159.829 80.5959 160.16H81.5959ZM82.0159 159.32V160.32C85.1191 160.32 87.5307 160.088 89.1742 159.574L88.8759 158.62L88.5777 157.666C87.2345 158.085 85.0728 158.32 82.0159 158.32V159.32ZM88.8759 158.62L89.1742 159.574C90.9526 159.019 92.1893 157.862 92.7646 156.136L91.8159 155.82L90.8673 155.504C90.5092 156.578 89.7859 157.288 88.5777 157.666L88.8759 158.62ZM91.8159 155.82L92.7444 156.191C93.3753 154.614 93.6559 152.409 93.6559 149.66H92.6559H91.6559C91.6559 152.324 91.3765 154.226 90.8875 155.449L91.8159 155.82ZM92.6559 149.66H93.6559V84.84H92.6559H91.6559V149.66H92.6559ZM92.6559 84.84H93.6559C93.6559 82.0982 93.3773 79.9246 92.7351 78.4261L91.8159 78.82L90.8968 79.2139C91.3746 80.3287 91.6559 82.1685 91.6559 84.84H92.6559ZM91.8159 78.82L92.7646 78.5038C92.1893 76.7779 90.9526 75.6213 89.1742 75.0655L88.8759 76.02L88.5777 76.9745C89.7859 77.3521 90.5092 78.0621 90.8673 79.1362L91.8159 78.82ZM88.8759 76.02L89.2271 75.0837C87.5601 74.4585 85.1255 74.18 82.0159 74.18V75.18V76.18C85.0663 76.18 87.2051 76.4614 88.5248 76.9563L88.8759 76.02ZM82.0159 75.18V74.18C82.1209 74.18 82.2574 74.2091 82.3869 74.2954C82.5101 74.3776 82.5711 74.4742 82.5954 74.5228C82.6177 74.5675 82.6152 74.5826 82.6086 74.5431C82.6024 74.5063 82.5959 74.441 82.5959 74.34H81.5959H80.5959C80.5959 74.6711 80.632 75.0682 80.8065 75.4172C80.9008 75.6058 81.0493 75.8074 81.2775 75.9595C81.512 76.1159 81.771 76.18 82.0159 76.18V75.18ZM81.5959 74.34H82.5959C82.5959 74.239 82.6024 74.1737 82.6086 74.1369C82.6152 74.0974 82.6177 74.1125 82.5954 74.1572C82.5711 74.2058 82.5101 74.3024 82.3869 74.3846C82.2574 74.4709 82.1209 74.5 82.0159 74.5V73.5V72.5C81.771 72.5 81.512 72.5641 81.2775 72.7205C81.0493 72.8726 80.9008 73.0742 80.8065 73.2628C80.632 73.6117 80.5959 74.0089 80.5959 74.34H81.5959ZM82.0159 73.5V74.5C84.3234 74.5 86.9148 74.5923 89.7916 74.7779L89.8559 73.78L89.9203 72.7821C87.0104 72.5943 84.3751 72.5 82.0159 72.5V73.5ZM89.8559 73.78L89.8247 74.7795C92.8227 74.8732 95.9598 74.92 99.2359 74.92V73.92V72.92C95.9787 72.92 92.8625 72.8735 89.8872 72.7805L89.8559 73.78ZM99.2359 73.92V74.92C101.513 74.92 104.435 74.7779 107.995 74.4969L107.916 73.5L107.837 72.5031C104.303 72.7821 101.439 72.92 99.2359 72.92V73.92ZM107.916 73.5L107.993 74.4971C111.609 74.2188 115.084 74.08 118.416 74.08V73.08V72.08C115.028 72.08 111.503 72.2211 107.839 72.5029L107.916 73.5ZM118.416 73.08V74.08C124.018 74.08 128.939 74.8608 133.196 76.4004L133.536 75.46L133.876 74.5196C129.359 72.8859 124.201 72.08 118.416 72.08V73.08ZM133.536 75.46L133.22 76.4087C137.534 77.8467 140.908 80.1666 143.387 83.3539L144.176 82.74L144.965 82.1261C142.218 78.5934 138.498 76.06 133.852 74.5113L133.536 75.46ZM144.176 82.74L143.387 83.3539C145.837 86.5045 147.195 90.7159 147.377 96.0739L148.376 96.04L149.375 96.0061C149.184 90.3508 147.742 85.6955 144.965 82.1261L144.176 82.74ZM148.376 96.04L147.376 96.0592C147.467 100.787 146.648 104.82 144.962 108.193L145.856 108.64L146.75 109.087C148.611 105.367 149.472 101 149.376 96.0208L148.376 96.04ZM145.856 108.64L144.962 108.193C143.255 111.606 140.926 114.425 137.972 116.663L138.576 117.46L139.18 118.257C142.386 115.829 144.91 112.768 146.75 109.087L145.856 108.64ZM138.576 117.46L137.976 116.66C135.078 118.834 131.861 120.511 128.32 121.691L128.636 122.64L128.952 123.589C132.691 122.342 136.101 120.566 139.176 118.26L138.576 117.46ZM128.636 122.64L128.342 121.684C124.793 122.776 121.252 123.32 117.716 123.32V124.32V125.32C121.46 125.32 125.199 124.744 128.93 123.596L128.636 122.64ZM117.716 124.32V123.32C116.719 123.32 115.625 123.275 114.433 123.183L114.356 124.18L114.279 125.177C115.514 125.272 116.66 125.32 117.716 125.32V124.32ZM114.356 124.18L114.439 123.183C113.374 123.095 112.308 122.917 111.238 122.65L110.996 123.62L110.753 124.59C111.924 124.883 113.098 125.079 114.273 125.177L114.356 124.18ZM110.996 123.62L111.312 122.671C111.4 122.7 111.493 122.757 111.568 122.842C111.64 122.923 111.668 122.997 111.677 123.03C111.686 123.06 111.681 123.061 111.681 123.016C111.681 122.973 111.686 122.904 111.702 122.804L110.716 122.64L109.73 122.476C109.673 122.816 109.648 123.209 109.754 123.58C109.876 124.005 110.175 124.401 110.68 124.569L110.996 123.62ZM110.716 122.64L111.706 122.781C111.723 122.662 111.742 122.589 111.756 122.55C111.771 122.509 111.769 122.532 111.729 122.58C111.682 122.636 111.592 122.714 111.456 122.756C111.324 122.796 111.219 122.782 111.173 122.77L111.416 121.8L111.658 120.83C111.426 120.772 111.152 120.757 110.868 120.844C110.581 120.933 110.356 121.104 110.193 121.3C109.895 121.657 109.781 122.116 109.726 122.499L110.716 122.64ZM111.416 121.8L111.173 122.77C111.976 122.971 112.865 123.118 113.836 123.215L113.936 122.22L114.035 121.225C113.14 121.135 112.349 121.003 111.658 120.83L111.416 121.8ZM113.936 122.22L113.836 123.215C114.79 123.31 115.619 123.36 116.316 123.36V122.36V121.36C115.707 121.36 114.949 121.316 114.035 121.225L113.936 122.22ZM116.316 122.36V123.36C119.589 123.36 122.624 122.464 125.397 120.681L124.856 119.84L124.315 118.999C121.862 120.576 119.202 121.36 116.316 121.36V122.36ZM124.856 119.84L125.397 120.681C128.203 118.877 130.416 116.145 132.065 112.557L131.156 112.14L130.247 111.723C128.722 115.041 126.735 117.443 124.315 118.999L124.856 119.84ZM131.156 112.14L132.055 112.577C133.821 108.948 134.676 104.446 134.676 99.12H133.676H132.676C132.676 104.247 131.851 108.425 130.257 111.703L131.156 112.14ZM133.676 99.12H134.676C134.676 94.0709 133.867 89.72 132.205 86.1025L131.296 86.52L130.387 86.9375C131.898 90.2267 132.676 94.2758 132.676 99.12H133.676ZM131.296 86.52L132.205 86.1025C130.545 82.4915 128.181 79.7165 125.099 77.8274L124.576 78.68L124.053 79.5326C126.758 81.1902 128.873 83.6419 130.387 86.9375L131.296 86.52ZM124.576 78.68L125.131 77.848C122.133 75.8497 118.476 74.88 114.216 74.88V75.88V76.88C118.169 76.88 121.419 77.7769 124.021 79.512L124.576 78.68ZM114.216 75.88V74.88C112.016 74.88 110.195 75.1165 108.817 75.6466L109.176 76.58L109.535 77.5133C110.583 77.1102 112.123 76.88 114.216 76.88V75.88ZM109.176 76.58L108.882 75.6242C107.336 76.0999 106.276 77.1919 105.714 78.7637L106.656 79.1L107.598 79.4363C107.97 78.3948 108.589 77.8068 109.47 77.5358L109.176 76.58ZM106.656 79.1L105.714 78.7637C105.188 80.2378 104.956 82.3862 104.956 85.12H105.956H106.956C106.956 82.4404 107.191 80.5755 107.598 79.4363L106.656 79.1ZM105.956 85.12H104.956V149.1H105.956H106.956V85.12H105.956ZM170.192 144.06L169.192 144.039L169.192 144.041L170.192 144.06ZM171.592 76.72L171.666 75.7227L170.614 75.6448L170.592 76.6992L171.592 76.72ZM175.372 77L176.372 77.023L176.393 76.0729L175.446 76.0027L175.372 77ZM173.832 144.06L172.832 144.037L172.832 144.041L173.832 144.06ZM176.632 155.4L175.832 156L175.839 156.009L175.846 156.018L176.632 155.4ZM164.452 160.86L164.412 159.861L164.41 159.861L164.452 160.86ZM166.832 155.4L166.059 154.765L166.052 154.774L166.046 154.782L166.832 155.4ZM261.192 160.86L261.161 161.86V161.86L261.192 160.86ZM242.572 160.86L242.54 159.861L242.539 159.861L242.572 160.86ZM243.552 157.5L244.232 158.233V158.233L243.552 157.5ZM245.092 149.66L244.093 149.706L244.093 149.718L244.094 149.73L245.092 149.66ZM242.152 85.68L241.309 85.1423L241.138 85.4094L241.153 85.7259L242.152 85.68ZM248.312 76.02L249.232 76.4124L247.469 75.4823L248.312 76.02ZM212.472 160.02L211.552 159.628L211.521 159.701L211.502 159.777L212.472 160.02ZM210.092 160.02L210.986 159.573L210.984 159.568L210.092 160.02ZM172.152 85.12L173.044 84.6681L173.044 84.6678L172.152 85.12ZM164.592 73.64L164.544 74.6389L164.546 74.639L164.592 73.64ZM175.232 73.64L175.176 72.6415L175.173 72.6417L175.232 73.64ZM182.092 74.9L181.273 75.4735L181.306 75.521L181.344 75.5644L182.092 74.9ZM185.592 80.78L186.483 80.3255L186.481 80.322L185.592 80.78ZM217.092 142.52L217.962 143.012L218.227 142.544L217.983 142.066L217.092 142.52ZM211.072 153.16L210.155 152.761L211.942 153.652L211.072 153.16ZM244.252 77L243.344 76.5809L243.339 76.5907L243.335 76.6006L244.252 77ZM246.072 74.34L245.421 73.5807V73.5807L246.072 74.34ZM251.112 73.64L251.012 74.6351L251.021 74.6359L251.112 73.64ZM261.892 73.64L261.939 74.6389V74.6389L261.892 73.64ZM258.112 77.56L258.723 78.3513V78.3513L258.112 77.56ZM255.312 85.68L256.311 85.6319L256.311 85.6313L255.312 85.68ZM258.392 149.66L257.393 149.708L257.394 149.718L257.394 149.729L258.392 149.66ZM259.372 155.82L258.423 156.136L258.432 156.164L258.443 156.191L259.372 155.82ZM262.452 158.62L262.154 159.574L262.162 159.577L262.17 159.579L262.452 158.62ZM170.192 144.06L171.192 144.081L172.592 76.7408L171.592 76.72L170.592 76.6992L169.192 144.039L170.192 144.06ZM171.592 76.72L171.518 77.7173L175.298 77.9973L175.372 77L175.446 76.0027L171.666 75.7227L171.592 76.72ZM175.372 77L174.372 76.977L172.832 144.037L173.832 144.06L174.832 144.083L176.372 77.023L175.372 77ZM173.832 144.06L172.832 144.041C172.737 149.102 173.685 153.137 175.832 156L176.632 155.4L177.432 154.8C175.659 152.436 174.741 148.912 174.832 144.079L173.832 144.06ZM176.632 155.4L175.846 156.018C178.128 158.923 181.483 160.32 185.732 160.32V159.32V158.32C181.955 158.32 179.242 157.104 177.418 154.782L176.632 155.4ZM185.732 159.32V160.32C185.627 160.32 185.49 160.291 185.361 160.205C185.238 160.122 185.177 160.026 185.152 159.977C185.13 159.932 185.133 159.917 185.139 159.957C185.145 159.994 185.152 160.059 185.152 160.16H186.152H187.152C187.152 159.829 187.116 159.432 186.941 159.083C186.847 158.894 186.699 158.693 186.47 158.54C186.236 158.384 185.977 158.32 185.732 158.32V159.32ZM186.152 160.16H185.152C185.152 160.261 185.145 160.326 185.139 160.363C185.133 160.403 185.13 160.387 185.152 160.343C185.177 160.294 185.238 160.198 185.361 160.115C185.49 160.029 185.627 160 185.732 160V161V162C185.977 162 186.236 161.936 186.47 161.78C186.699 161.627 186.847 161.426 186.941 161.237C187.116 160.888 187.152 160.491 187.152 160.16H186.152ZM185.732 161V160C183.694 160 181.608 159.954 179.475 159.861L179.432 160.86L179.388 161.859C181.549 161.953 183.663 162 185.732 162V161ZM179.432 160.86L179.475 159.861C177.311 159.767 174.87 159.72 172.152 159.72V160.72V161.72C174.848 161.72 177.259 161.766 179.388 161.859L179.432 160.86ZM172.152 160.72V159.72C169.341 159.72 166.761 159.767 164.412 159.861L164.452 160.86L164.492 161.859C166.81 161.766 169.363 161.72 172.152 161.72V160.72ZM164.452 160.86L164.41 159.861C162.183 159.954 160.05 160 158.012 160V161V162C160.08 162 162.241 161.953 164.493 161.859L164.452 160.86ZM158.012 161V160C158.117 160 158.253 160.029 158.383 160.115C158.506 160.198 158.567 160.294 158.591 160.343C158.614 160.387 158.611 160.403 158.605 160.363C158.598 160.326 158.592 160.261 158.592 160.16H157.592H156.592C156.592 160.491 156.628 160.888 156.802 161.237C156.897 161.426 157.045 161.627 157.273 161.78C157.508 161.936 157.767 162 158.012 162V161ZM157.592 160.16H158.592C158.592 160.059 158.598 159.994 158.605 159.957C158.611 159.917 158.614 159.932 158.591 159.977C158.567 160.026 158.506 160.122 158.383 160.205C158.253 160.291 158.117 160.32 158.012 160.32V159.32V158.32C157.767 158.32 157.508 158.384 157.273 158.54C157.045 158.693 156.897 158.894 156.802 159.083C156.628 159.432 156.592 159.829 156.592 160.16H157.592ZM158.012 159.32V160.32C162.093 160.32 165.345 158.911 167.618 156.018L166.832 155.4L166.046 154.782C164.212 157.116 161.584 158.32 158.012 158.32V159.32ZM166.832 155.4L167.605 156.035C169.947 153.183 171.096 149.15 171.192 144.079L170.192 144.06L169.192 144.041C169.101 148.863 168.01 152.39 166.059 154.765L166.832 155.4ZM269.312 159.32V160.32C269.207 160.32 269.094 160.3 268.984 160.252C268.874 160.205 268.789 160.142 268.727 160.08C268.612 159.964 268.577 159.857 268.573 159.846C268.567 159.828 268.574 159.841 268.581 159.903C268.587 159.962 268.592 160.046 268.592 160.16H269.592H270.592C270.592 159.851 270.569 159.51 270.471 159.214C270.38 158.943 270.069 158.32 269.312 158.32V159.32ZM269.592 160.16H268.592C268.592 160.274 268.587 160.358 268.581 160.417C268.574 160.479 268.567 160.492 268.573 160.474C268.577 160.463 268.612 160.356 268.727 160.24C268.789 160.178 268.874 160.115 268.984 160.068C269.094 160.02 269.207 160 269.312 160V161V162C270.069 162 270.38 161.377 270.471 161.106C270.569 160.81 270.592 160.469 270.592 160.16H269.592ZM269.312 161V160C266.898 160 264.202 159.954 261.223 159.86L261.192 160.86L261.161 161.86C264.155 161.953 266.873 162 269.312 162V161ZM261.192 160.86L261.223 159.86C258.225 159.767 255.088 159.72 251.812 159.72V160.72V161.72C255.069 161.72 258.185 161.767 261.161 161.86L261.192 160.86ZM251.812 160.72V159.72C248.536 159.72 245.445 159.767 242.54 159.861L242.572 160.86L242.604 161.859C245.485 161.767 248.555 161.72 251.812 161.72V160.72ZM242.572 160.86L242.539 159.861C239.748 159.954 237.192 160 234.872 160V161V162C237.218 162 239.796 161.953 242.605 161.859L242.572 160.86ZM234.872 161V160C234.977 160 235.09 160.02 235.2 160.068C235.309 160.115 235.394 160.178 235.456 160.24C235.572 160.356 235.607 160.463 235.611 160.474C235.617 160.492 235.61 160.479 235.603 160.417C235.597 160.358 235.592 160.274 235.592 160.16H234.592H233.592C233.592 160.469 233.614 160.81 233.713 161.106C233.803 161.377 234.114 162 234.872 162V161ZM234.592 160.16H235.592C235.592 160.046 235.597 159.962 235.603 159.903C235.61 159.841 235.617 159.828 235.611 159.846C235.607 159.857 235.572 159.964 235.456 160.08C235.394 160.142 235.309 160.205 235.2 160.252C235.09 160.3 234.977 160.32 234.872 160.32V159.32V158.32C234.114 158.32 233.803 158.943 233.713 159.214C233.614 159.51 233.592 159.851 233.592 160.16H234.592ZM234.872 159.32V160.32C237.149 160.32 239.068 160.166 240.607 159.844C242.127 159.525 243.385 159.02 244.232 158.233L243.552 157.5L242.871 156.767C242.412 157.194 241.57 157.598 240.197 157.886C238.842 158.17 237.074 158.32 234.872 158.32V159.32ZM243.552 157.5L244.232 158.233C245.1 157.427 245.62 156.24 245.898 154.823C246.178 153.398 246.233 151.645 246.089 149.59L245.092 149.66L244.094 149.73C244.231 151.688 244.169 153.249 243.936 154.437C243.701 155.634 243.311 156.359 242.871 156.767L243.552 157.5ZM245.092 149.66L246.091 149.614L243.151 85.6341L242.152 85.68L241.153 85.7259L244.093 149.706L245.092 149.66ZM242.152 85.68L242.995 86.2177L249.155 76.5577L248.312 76.02L247.469 75.4823L241.309 85.1423L242.152 85.68ZM248.312 76.02L247.392 75.6276L211.552 159.628L212.472 160.02L213.392 160.412L249.232 76.4124L248.312 76.02ZM212.472 160.02L211.502 159.777C211.513 159.733 211.538 159.677 211.581 159.625C211.623 159.575 211.662 159.552 211.675 159.546C211.684 159.541 211.668 159.551 211.61 159.561C211.554 159.571 211.469 159.58 211.352 159.58V160.58V161.58C211.755 161.58 212.187 161.526 212.569 161.334C212.992 161.123 213.318 160.758 213.442 160.263L212.472 160.02ZM211.352 160.58V159.58C211.11 159.58 210.993 159.544 210.953 159.526C210.937 159.519 210.941 159.518 210.954 159.53C210.968 159.543 210.98 159.559 210.986 159.573L210.092 160.02L209.197 160.467C209.638 161.348 210.554 161.58 211.352 161.58V160.58ZM210.092 160.02L210.984 159.568L173.044 84.6681L172.152 85.12L171.26 85.5719L209.2 160.472L210.092 160.02ZM172.152 85.12L173.044 84.6678C169.587 77.8495 164.92 74.18 158.992 74.18V75.18V76.18C163.89 76.18 167.997 79.1371 171.26 85.5722L172.152 85.12ZM158.992 75.18V74.18C159.097 74.18 159.233 74.2091 159.363 74.2954C159.486 74.3776 159.547 74.4742 159.571 74.5228C159.594 74.5675 159.591 74.5826 159.585 74.5431C159.578 74.5063 159.572 74.441 159.572 74.34H158.572H157.572C157.572 74.6711 157.608 75.0683 157.782 75.4172C157.877 75.6058 158.025 75.8074 158.253 75.9595C158.488 76.1159 158.747 76.18 158.992 76.18V75.18ZM158.572 74.34H159.572C159.572 74.239 159.578 74.1737 159.585 74.1369C159.591 74.0974 159.594 74.1125 159.571 74.1572C159.547 74.2058 159.486 74.3024 159.363 74.3846C159.233 74.4709 159.097 74.5 158.992 74.5V73.5V72.5C158.747 72.5 158.488 72.5641 158.253 72.7205C158.025 72.8726 157.877 73.0742 157.782 73.2628C157.608 73.6117 157.572 74.0089 157.572 74.34H158.572ZM158.992 73.5V74.5C160.748 74.5 162.599 74.5462 164.544 74.6389L164.592 73.64L164.639 72.6411C162.665 72.5471 160.783 72.5 158.992 72.5V73.5ZM164.592 73.64L164.546 74.639C166.609 74.7327 168.352 74.78 169.772 74.78V73.78V72.78C168.392 72.78 166.682 72.734 164.637 72.641L164.592 73.64ZM169.772 73.78V74.78C171.839 74.78 173.68 74.733 175.291 74.6383L175.232 73.64L175.173 72.6417C173.611 72.7336 171.811 72.78 169.772 72.78V73.78ZM175.232 73.64L175.287 74.6385C176.961 74.5455 178.246 74.5 179.152 74.5V73.5V72.5C178.191 72.5 176.863 72.5479 175.176 72.6415L175.232 73.64ZM179.152 73.5V74.5C180.188 74.5 180.836 74.8498 181.273 75.4735L182.092 74.9L182.911 74.3265C182.041 73.0835 180.729 72.5 179.152 72.5V73.5ZM182.092 74.9L181.344 75.5644C181.993 76.2937 183.105 78.1362 184.703 81.238L185.592 80.78L186.481 80.322C184.905 77.2638 183.684 75.1863 182.839 74.2356L182.092 74.9ZM185.592 80.78L184.701 81.2345L216.201 142.974L217.092 142.52L217.983 142.066L186.483 80.3255L185.592 80.78ZM217.092 142.52L216.222 142.028L210.202 152.668L211.072 153.16L211.942 153.652L217.962 143.012L217.092 142.52ZM211.072 153.16L211.989 153.559L245.169 77.3994L244.252 77L243.335 76.6006L210.155 152.761L211.072 153.16ZM244.252 77L245.16 77.4191C245.69 76.2714 246.222 75.5283 246.723 75.0993L246.072 74.34L245.421 73.5807C244.615 74.2717 243.934 75.3019 243.344 76.5809L244.252 77ZM246.072 74.34L246.723 75.0993C247.179 74.7082 247.735 74.5 248.452 74.5V73.5V72.5C247.302 72.5 246.272 72.8518 245.421 73.5807L246.072 74.34ZM248.452 73.5V74.5C249.255 74.5 250.108 74.5446 251.012 74.635L251.112 73.64L251.211 72.645C250.249 72.5487 249.329 72.5 248.452 72.5V73.5ZM251.112 73.64L251.021 74.6359C252.087 74.7327 253.332 74.78 254.752 74.78V73.78V72.78C253.372 72.78 252.191 72.7339 251.202 72.6441L251.112 73.64ZM254.752 73.78V74.78C257.562 74.78 259.959 74.7332 261.939 74.6389L261.892 73.64L261.844 72.6411C259.905 72.7335 257.542 72.78 254.752 72.78V73.78ZM261.892 73.64L261.939 74.6389C263.884 74.5462 265.782 74.5 267.632 74.5V73.5V72.5C265.749 72.5 263.819 72.5471 261.844 72.6411L261.892 73.64ZM267.632 73.5V74.5C267.527 74.5 267.39 74.4709 267.261 74.3846C267.138 74.3024 267.077 74.2058 267.052 74.1572C267.03 74.1125 267.033 74.0974 267.039 74.1369C267.045 74.1737 267.052 74.239 267.052 74.34H268.052H269.052C269.052 74.0089 269.016 73.6117 268.841 73.2628C268.747 73.0742 268.599 72.8726 268.37 72.7204C268.136 72.5641 267.877 72.5 267.632 72.5V73.5ZM268.052 74.34H267.052C267.052 74.441 267.045 74.5063 267.039 74.5431C267.033 74.5826 267.03 74.5675 267.052 74.5228C267.077 74.4741 267.138 74.3776 267.261 74.2954C267.39 74.2091 267.527 74.18 267.632 74.18V75.18V76.18C267.877 76.18 268.136 76.1159 268.37 75.9595C268.599 75.8074 268.747 75.6058 268.841 75.4172C269.016 75.0683 269.052 74.6711 269.052 74.34H268.052ZM267.632 75.18V74.18C263.25 74.18 259.811 74.9834 257.5 76.7687L258.112 77.56L258.723 78.3513C260.52 76.9633 263.427 76.18 267.632 76.18V75.18ZM258.112 77.56L257.5 76.7687C255.081 78.6383 254.118 81.7399 254.313 85.7287L255.312 85.68L256.311 85.6313C256.132 81.9667 257.036 79.6551 258.723 78.3513L258.112 77.56ZM255.312 85.68L254.313 85.7281L257.393 149.708L258.392 149.66L259.391 149.612L256.311 85.6319L255.312 85.68ZM258.392 149.66L257.394 149.729C257.583 152.462 257.916 154.615 258.423 156.136L259.372 155.82L260.321 155.504C259.894 154.225 259.574 152.271 259.39 149.591L258.392 149.66ZM259.372 155.82L258.443 156.191C259.12 157.883 260.386 159.022 262.154 159.574L262.452 158.62L262.75 157.666C261.531 157.285 260.744 156.557 260.3 155.449L259.372 155.82ZM262.452 158.62L262.17 159.579C263.894 160.086 266.293 160.32 269.312 160.32V159.32V158.32C266.357 158.32 264.183 158.087 262.734 157.661L262.452 158.62Z" fill="black" mask="url(#path-1-outside-1_4_15)"/>
<path d="M30.1 155.54L29.1838 155.941L29.1887 155.952L29.1938 155.963L30.1 155.54ZM34.16 158.48L33.8969 159.445L33.9076 159.448L34.16 158.48ZM33.88 160.86L33.853 161.86L33.8537 161.86L33.88 160.86ZM13.16 160.86L13.1912 161.86L13.16 160.86ZM14.98 155.82L14.0515 155.449L14.0406 155.476L14.0313 155.504L14.98 155.82ZM14.98 78.82L14.0313 79.1362L14.0445 79.1757L14.0609 79.2139L14.98 78.82ZM12.04 76.02L11.6889 76.9563L11.715 76.9661L11.7417 76.9745L12.04 76.02ZM13.02 73.78L12.9556 74.7779L12.9722 74.779L12.9888 74.7795L13.02 73.78ZM31.08 73.5L31.0033 72.5029L31.0013 72.5031L31.08 73.5ZM56.7 75.46L56.3599 76.4004L56.3718 76.4047L56.3838 76.4087L56.7 75.46ZM67.34 82.74L68.1294 82.1261V82.1261L67.34 82.74ZM71.54 96.04L72.5398 96.0208L72.5397 96.0134L72.5394 96.0061L71.54 96.04ZM69.02 108.64L69.9144 109.087V109.087L69.02 108.64ZM61.74 117.46L62.34 118.26L62.3439 118.257L61.74 117.46ZM51.8 122.64L52.0941 123.596L52.1052 123.592L52.1162 123.589L51.8 122.64ZM37.52 124.18L37.437 125.177L37.4433 125.177L37.52 124.18ZM34.16 123.62L33.8438 124.569L33.8802 124.581L33.9175 124.59L34.16 123.62ZM33.88 122.64L34.8664 122.804L34.8683 122.793L34.87 122.781L33.88 122.64ZM34.58 121.8L34.3375 122.77H34.3375L34.58 121.8ZM37.1 122.22L37.0005 123.215H37.0005L37.1 122.22ZM48.02 119.84L48.5608 120.681V120.681L48.02 119.84ZM54.32 112.14L53.4208 111.703L53.4159 111.712L53.4113 111.723L54.32 112.14ZM54.46 86.52L55.3687 86.1025V86.1025L54.46 86.52ZM47.74 78.68L47.1853 79.512L47.2012 79.5226L47.2174 79.5326L47.74 78.68ZM32.34 76.58L32.6341 77.5358L32.6669 77.5257L32.699 77.5133L32.34 76.58ZM29.82 79.1L30.7617 79.4363V79.4363L29.82 79.1ZM29.12 149.1H28.12C28.12 151.953 28.4491 154.261 29.1838 155.941L30.1 155.54L31.0162 155.139C30.4443 153.832 30.12 151.847 30.12 149.1H29.12ZM30.1 155.54L29.1938 155.963C30.0135 157.719 31.6723 158.838 33.8969 159.445L34.16 158.48L34.4231 157.515C32.541 157.002 31.4932 156.161 31.0062 155.117L30.1 155.54ZM34.16 158.48L33.9076 159.448C36.1802 160.04 39.4562 160.32 43.68 160.32V159.32V158.32C39.5038 158.32 36.4331 158.04 34.4124 157.512L34.16 158.48ZM43.68 159.32V160.32C43.575 160.32 43.4385 160.291 43.3091 160.205C43.1858 160.122 43.1249 160.026 43.1006 159.977C43.0782 159.932 43.0808 159.917 43.0874 159.957C43.0935 159.994 43.1 160.059 43.1 160.16H44.1H45.1C45.1 159.829 45.0639 159.432 44.8894 159.083C44.7951 158.894 44.6467 158.693 44.4184 158.54C44.184 158.384 43.925 158.32 43.68 158.32V159.32ZM44.1 160.16H43.1C43.1 160.261 43.0935 160.326 43.0874 160.363C43.0808 160.403 43.0782 160.387 43.1006 160.343C43.1249 160.294 43.1858 160.198 43.3091 160.115C43.4385 160.029 43.575 160 43.68 160V161V162C43.925 162 44.184 161.936 44.4184 161.78C44.6467 161.627 44.7951 161.426 44.8894 161.237C45.0639 160.888 45.1 160.491 45.1 160.16H44.1ZM43.68 161V160C40.7035 160 37.4458 159.953 33.9063 159.86L33.88 160.86L33.8537 161.86C37.4076 161.953 40.6831 162 43.68 162V161ZM33.88 160.86L33.907 159.86C30.4432 159.767 26.6541 159.72 22.54 159.72V160.72V161.72C26.6393 161.72 30.4101 161.767 33.853 161.86L33.88 160.86ZM22.54 160.72V159.72C19.2639 159.72 16.1267 159.767 13.1288 159.86L13.16 160.86L13.1912 161.86C16.1666 161.767 19.2828 161.72 22.54 161.72V160.72ZM13.16 160.86L13.1288 159.86C10.1498 159.954 7.50051 160 5.18 160V161V162C7.52615 162 10.1969 161.953 13.1912 161.86L13.16 160.86ZM5.18 161V160C5.28498 160 5.42146 160.029 5.55095 160.115C5.67419 160.198 5.73511 160.294 5.75943 160.343C5.78178 160.387 5.77923 160.403 5.77264 160.363C5.76651 160.326 5.76 160.261 5.76 160.16H4.76H3.76C3.76 160.491 3.79609 160.888 3.97057 161.237C4.06489 161.426 4.21331 161.627 4.44155 161.78C4.67604 161.936 4.93502 162 5.18 162V161ZM4.76 160.16H5.76C5.76 160.059 5.76651 159.994 5.77264 159.957C5.77923 159.917 5.78178 159.932 5.75943 159.977C5.73511 160.026 5.67419 160.122 5.55095 160.205C5.42146 160.291 5.28498 160.32 5.18 160.32V159.32V158.32C4.93502 158.32 4.67604 158.384 4.44155 158.54C4.21331 158.693 4.06489 158.894 3.97057 159.083C3.79609 159.432 3.76 159.829 3.76 160.16H4.76ZM5.18 159.32V160.32C8.28314 160.32 10.6948 160.088 12.3383 159.574L12.04 158.62L11.7417 157.666C10.3985 158.085 8.23686 158.32 5.18 158.32V159.32ZM12.04 158.62L12.3383 159.574C14.1167 159.019 15.3534 157.862 15.9287 156.136L14.98 155.82L14.0313 155.504C13.6733 156.578 12.95 157.288 11.7417 157.666L12.04 158.62ZM14.98 155.82L15.9085 156.191C16.5394 154.614 16.82 152.409 16.82 149.66H15.82H14.82C14.82 152.324 14.5406 154.226 14.0515 155.449L14.98 155.82ZM15.82 149.66H16.82V84.84H15.82H14.82V149.66H15.82ZM15.82 84.84H16.82C16.82 82.0982 16.5414 79.9246 15.8991 78.4261L14.98 78.82L14.0609 79.2139C14.5386 80.3287 14.82 82.1685 14.82 84.84H15.82ZM14.98 78.82L15.9287 78.5038C15.3534 76.7779 14.1167 75.6213 12.3383 75.0655L12.04 76.02L11.7417 76.9745C12.95 77.3521 13.6733 78.0621 14.0313 79.1362L14.98 78.82ZM12.04 76.02L12.3911 75.0837C10.7241 74.4585 8.28961 74.18 5.18 74.18V75.18V76.18C8.23039 76.18 10.3692 76.4614 11.6889 76.9563L12.04 76.02ZM5.18 75.18V74.18C5.28498 74.18 5.42145 74.2091 5.55095 74.2954C5.67418 74.3776 5.73511 74.4742 5.75943 74.5228C5.78178 74.5675 5.77923 74.5826 5.77264 74.5431C5.76651 74.5063 5.76 74.441 5.76 74.34H4.76H3.76C3.76 74.6711 3.79609 75.0682 3.97057 75.4172C4.06489 75.6058 4.21332 75.8074 4.44155 75.9595C4.67605 76.1159 4.93502 76.18 5.18 76.18V75.18ZM4.76 74.34H5.76C5.76 74.239 5.76651 74.1737 5.77264 74.1369C5.77923 74.0974 5.78178 74.1125 5.75943 74.1572C5.73511 74.2058 5.67418 74.3024 5.55095 74.3846C5.42145 74.4709 5.28498 74.5 5.18 74.5V73.5V72.5C4.93502 72.5 4.67605 72.5641 4.44155 72.7205C4.21332 72.8726 4.06489 73.0742 3.97057 73.2628C3.79609 73.6117 3.76 74.0089 3.76 74.34H4.76ZM5.18 73.5V74.5C7.48746 74.5 10.0788 74.5923 12.9556 74.7779L13.02 73.78L13.0844 72.7821C10.1745 72.5943 7.53921 72.5 5.18 72.5V73.5ZM13.02 73.78L12.9888 74.7795C15.9867 74.8732 19.1239 74.92 22.4 74.92V73.92V72.92C19.1428 72.92 16.0266 72.8735 13.0512 72.7805L13.02 73.78ZM22.4 73.92V74.92C24.6769 74.92 27.5991 74.7779 31.1587 74.4969L31.08 73.5L31.0013 72.5031C27.4675 72.7821 24.6031 72.92 22.4 72.92V73.92ZM31.08 73.5L31.1567 74.4971C34.7733 74.2188 38.2477 74.08 41.58 74.08V73.08V72.08C38.1923 72.08 34.6667 72.2211 31.0033 72.5029L31.08 73.5ZM41.58 73.08V74.08C47.1821 74.08 52.1033 74.8608 56.3599 76.4004L56.7 75.46L57.0401 74.5196C52.5234 72.8859 47.3646 72.08 41.58 72.08V73.08ZM56.7 75.46L56.3838 76.4087C60.6978 77.8467 64.0716 80.1666 66.5507 83.3539L67.34 82.74L68.1294 82.1261C65.3817 78.5934 61.6622 76.06 57.0162 74.5113L56.7 75.46ZM67.34 82.74L66.5507 83.3539C69.0011 86.5045 70.3589 90.7159 70.5406 96.0739L71.54 96.04L72.5394 96.0061C72.3477 90.3508 70.9056 85.6955 68.1294 82.1261L67.34 82.74ZM71.54 96.04L70.5402 96.0592C70.6311 100.787 69.8121 104.82 68.1256 108.193L69.02 108.64L69.9144 109.087C71.7746 105.367 72.6356 101 72.5398 96.0208L71.54 96.04ZM69.02 108.64L68.1256 108.193C66.4191 111.606 64.0904 114.425 61.1361 116.663L61.74 117.46L62.3439 118.257C65.5496 115.829 68.0743 112.768 69.9144 109.087L69.02 108.64ZM61.74 117.46L61.14 116.66C58.2417 118.834 55.0247 120.511 51.4838 121.691L51.8 122.64L52.1162 123.589C55.8553 122.342 59.265 120.566 62.34 118.26L61.74 117.46ZM51.8 122.64L51.5059 121.684C47.9568 122.776 44.4158 123.32 40.88 123.32V124.32V125.32C44.6242 125.32 48.3632 124.744 52.0941 123.596L51.8 122.64ZM40.88 124.32V123.32C39.8831 123.32 38.789 123.275 37.5967 123.183L37.52 124.18L37.4433 125.177C38.6776 125.272 39.8236 125.32 40.88 125.32V124.32ZM37.52 124.18L37.603 123.183C36.5383 123.095 35.4716 122.917 34.4025 122.65L34.16 123.62L33.9175 124.59C35.0884 124.883 36.2617 125.079 37.437 125.177L37.52 124.18ZM34.16 123.62L34.4762 122.671C34.5637 122.7 34.6568 122.757 34.7324 122.842C34.8041 122.923 34.8321 122.997 34.8415 123.03C34.8501 123.06 34.845 123.061 34.845 123.016C34.845 122.973 34.8497 122.904 34.8664 122.804L33.88 122.64L32.8936 122.476C32.8368 122.816 32.8125 123.209 32.9185 123.58C33.04 124.005 33.3395 124.401 33.8438 124.569L34.16 123.62ZM33.88 122.64L34.87 122.781C34.8869 122.662 34.9065 122.589 34.9201 122.55C34.9346 122.509 34.9334 122.532 34.8932 122.58C34.8463 122.636 34.7561 122.714 34.6203 122.756C34.4882 122.796 34.3833 122.782 34.3375 122.77L34.58 121.8L34.8225 120.83C34.59 120.772 34.3159 120.757 34.0322 120.844C33.7447 120.933 33.5203 121.104 33.3568 121.3C33.0594 121.657 32.9447 122.116 32.8901 122.499L33.88 122.64ZM34.58 121.8L34.3375 122.77C35.14 122.971 36.029 123.118 37.0005 123.215L37.1 122.22L37.1995 121.225C36.3044 121.135 35.5133 121.003 34.8225 120.83L34.58 121.8ZM37.1 122.22L37.0005 123.215C37.954 123.31 38.7826 123.36 39.48 123.36V122.36V121.36C38.8707 121.36 38.1127 121.316 37.1995 121.225L37.1 122.22ZM39.48 122.36V123.36C42.7535 123.36 45.7876 122.464 48.5608 120.681L48.02 119.84L47.4792 118.999C45.0257 120.576 42.3665 121.36 39.48 121.36V122.36ZM48.02 119.84L48.5608 120.681C51.3672 118.877 53.5802 116.145 55.2287 112.557L54.32 112.14L53.4113 111.723C51.8865 115.041 49.8995 117.443 47.4792 118.999L48.02 119.84ZM54.32 112.14L55.2192 112.577C56.985 108.948 57.84 104.446 57.84 99.12H56.84H55.84C55.84 104.247 55.015 108.425 53.4208 111.703L54.32 112.14ZM56.84 99.12H57.84C57.84 94.0709 57.0308 89.72 55.3687 86.1025L54.46 86.52L53.5513 86.9375C55.0626 90.2267 55.84 94.2758 55.84 99.12H56.84ZM54.46 86.52L55.3687 86.1025C53.7096 82.4915 51.3447 79.7165 48.2626 77.8274L47.74 78.68L47.2174 79.5326C49.9219 81.1902 52.0371 83.6419 53.5513 86.9375L54.46 86.52ZM47.74 78.68L48.2947 77.848C45.2974 75.8497 41.6402 74.88 37.38 74.88V75.88V76.88C41.3332 76.88 44.5827 77.7769 47.1853 79.512L47.74 78.68ZM37.38 75.88V74.88C35.18 74.88 33.3595 75.1165 31.981 75.6466L32.34 76.58L32.699 77.5133C33.7472 77.1102 35.2867 76.88 37.38 76.88V75.88ZM32.34 76.58L32.0459 75.6242C30.5 76.0999 29.4396 77.1919 28.8783 78.7637L29.82 79.1L30.7617 79.4363C31.1337 78.3948 31.7533 77.8068 32.6341 77.5358L32.34 76.58ZM29.82 79.1L28.8783 78.7637C28.3518 80.2378 28.12 82.3862 28.12 85.12H29.12H30.12C30.12 82.4404 30.3549 80.5755 30.7617 79.4363L29.82 79.1ZM29.12 85.12H28.12V149.1H29.12H30.12V85.12H29.12ZM106.936 155.54L106.02 155.941L106.025 155.952L106.03 155.963L106.936 155.54ZM110.996 158.48L110.733 159.445L110.744 159.448L110.996 158.48ZM110.716 160.86L110.689 161.86L110.69 161.86L110.716 160.86ZM89.9959 160.86L90.0272 161.86L89.9959 160.86ZM91.8159 155.82L90.8875 155.449L90.8765 155.476L90.8673 155.504L91.8159 155.82ZM91.8159 78.82L90.8673 79.1362L90.8804 79.1757L90.8968 79.2139L91.8159 78.82ZM88.8759 76.02L88.5248 76.9563L88.551 76.9661L88.5777 76.9745L88.8759 76.02ZM89.8559 73.78L89.7916 74.7779L89.8081 74.779L89.8247 74.7795L89.8559 73.78ZM107.916 73.5L107.839 72.5029L107.837 72.5031L107.916 73.5ZM133.536 75.46L133.196 76.4004L133.208 76.4047L133.22 76.4087L133.536 75.46ZM144.176 82.74L144.965 82.1261V82.1261L144.176 82.74ZM148.376 96.04L149.376 96.0208L149.376 96.0134L149.375 96.0061L148.376 96.04ZM145.856 108.64L146.75 109.087V109.087L145.856 108.64ZM138.576 117.46L139.176 118.26L139.18 118.257L138.576 117.46ZM128.636 122.64L128.93 123.596L128.941 123.592L128.952 123.589L128.636 122.64ZM114.356 124.18L114.273 125.177L114.279 125.177L114.356 124.18ZM110.996 123.62L110.68 124.569L110.716 124.581L110.753 124.59L110.996 123.62ZM110.716 122.64L111.702 122.804L111.704 122.793L111.706 122.781L110.716 122.64ZM111.416 121.8L111.173 122.77V122.77L111.416 121.8ZM113.936 122.22L113.836 123.215H113.836L113.936 122.22ZM124.856 119.84L125.397 120.681V120.681L124.856 119.84ZM131.156 112.14L130.257 111.703L130.252 111.712L130.247 111.723L131.156 112.14ZM131.296 86.52L132.205 86.1025V86.1025L131.296 86.52ZM124.576 78.68L124.021 79.512L124.037 79.5226L124.053 79.5326L124.576 78.68ZM109.176 76.58L109.47 77.5358L109.503 77.5257L109.535 77.5133L109.176 76.58ZM106.656 79.1L107.598 79.4363V79.4363L106.656 79.1ZM105.956 149.1H104.956C104.956 151.953 105.285 154.261 106.02 155.941L106.936 155.54L107.852 155.139C107.28 153.832 106.956 151.847 106.956 149.1H105.956ZM106.936 155.54L106.03 155.963C106.849 157.719 108.508 158.838 110.733 159.445L110.996 158.48L111.259 157.515C109.377 157.002 108.329 156.161 107.842 155.117L106.936 155.54ZM110.996 158.48L110.744 159.448C113.016 160.04 116.292 160.32 120.516 160.32V159.32V158.32C116.34 158.32 113.269 158.04 111.248 157.512L110.996 158.48ZM120.516 159.32V160.32C120.411 160.32 120.274 160.291 120.145 160.205C120.022 160.122 119.961 160.026 119.937 159.977C119.914 159.932 119.917 159.917 119.923 159.957C119.929 159.994 119.936 160.059 119.936 160.16H120.936H121.936C121.936 159.829 121.9 159.432 121.725 159.083C121.631 158.894 121.483 158.693 121.254 158.54C121.02 158.384 120.761 158.32 120.516 158.32V159.32ZM120.936 160.16H119.936C119.936 160.261 119.929 160.326 119.923 160.363C119.917 160.403 119.914 160.387 119.937 160.343C119.961 160.294 120.022 160.198 120.145 160.115C120.274 160.029 120.411 160 120.516 160V161V162C120.761 162 121.02 161.936 121.254 161.78C121.483 161.627 121.631 161.426 121.725 161.237C121.9 160.888 121.936 160.491 121.936 160.16H120.936ZM120.516 161V160C117.539 160 114.282 159.953 110.742 159.86L110.716 160.86L110.69 161.86C114.243 161.953 117.519 162 120.516 162V161ZM110.716 160.86L110.743 159.86C107.279 159.767 103.49 159.72 99.3759 159.72V160.72V161.72C103.475 161.72 107.246 161.767 110.689 161.86L110.716 160.86ZM99.3759 160.72V159.72C96.0998 159.72 92.9627 159.767 89.9647 159.86L89.9959 160.86L90.0272 161.86C93.0025 161.767 96.1187 161.72 99.3759 161.72V160.72ZM89.9959 160.86L89.9647 159.86C86.9857 159.954 84.3364 160 82.0159 160V161V162C84.3621 162 87.0328 161.953 90.0272 161.86L89.9959 160.86ZM82.0159 161V160C82.1209 160 82.2574 160.029 82.3869 160.115C82.5101 160.198 82.5711 160.294 82.5954 160.343C82.6177 160.387 82.6152 160.403 82.6086 160.363C82.6024 160.326 82.5959 160.261 82.5959 160.16H81.5959H80.5959C80.5959 160.491 80.632 160.888 80.8065 161.237C80.9008 161.426 81.0493 161.627 81.2775 161.78C81.512 161.936 81.771 162 82.0159 162V161ZM81.5959 160.16H82.5959C82.5959 160.059 82.6024 159.994 82.6086 159.957C82.6152 159.917 82.6177 159.932 82.5954 159.977C82.5711 160.026 82.5101 160.122 82.3869 160.205C82.2574 160.291 82.1209 160.32 82.0159 160.32V159.32V158.32C81.771 158.32 81.512 158.384 81.2775 158.54C81.0493 158.693 80.9008 158.894 80.8065 159.083C80.632 159.432 80.5959 159.829 80.5959 160.16H81.5959ZM82.0159 159.32V160.32C85.1191 160.32 87.5307 160.088 89.1742 159.574L88.8759 158.62L88.5777 157.666C87.2345 158.085 85.0728 158.32 82.0159 158.32V159.32ZM88.8759 158.62L89.1742 159.574C90.9526 159.019 92.1893 157.862 92.7646 156.136L91.8159 155.82L90.8673 155.504C90.5092 156.578 89.7859 157.288 88.5777 157.666L88.8759 158.62ZM91.8159 155.82L92.7444 156.191C93.3753 154.614 93.6559 152.409 93.6559 149.66H92.6559H91.6559C91.6559 152.324 91.3765 154.226 90.8875 155.449L91.8159 155.82ZM92.6559 149.66H93.6559V84.84H92.6559H91.6559V149.66H92.6559ZM92.6559 84.84H93.6559C93.6559 82.0982 93.3773 79.9246 92.7351 78.4261L91.8159 78.82L90.8968 79.2139C91.3746 80.3287 91.6559 82.1685 91.6559 84.84H92.6559ZM91.8159 78.82L92.7646 78.5038C92.1893 76.7779 90.9526 75.6213 89.1742 75.0655L88.8759 76.02L88.5777 76.9745C89.7859 77.3521 90.5092 78.0621 90.8673 79.1362L91.8159 78.82ZM88.8759 76.02L89.2271 75.0837C87.5601 74.4585 85.1255 74.18 82.0159 74.18V75.18V76.18C85.0663 76.18 87.2051 76.4614 88.5248 76.9563L88.8759 76.02ZM82.0159 75.18V74.18C82.1209 74.18 82.2574 74.2091 82.3869 74.2954C82.5101 74.3776 82.5711 74.4742 82.5954 74.5228C82.6177 74.5675 82.6152 74.5826 82.6086 74.5431C82.6024 74.5063 82.5959 74.441 82.5959 74.34H81.5959H80.5959C80.5959 74.6711 80.632 75.0682 80.8065 75.4172C80.9008 75.6058 81.0493 75.8074 81.2775 75.9595C81.512 76.1159 81.771 76.18 82.0159 76.18V75.18ZM81.5959 74.34H82.5959C82.5959 74.239 82.6024 74.1737 82.6086 74.1369C82.6152 74.0974 82.6177 74.1125 82.5954 74.1572C82.5711 74.2058 82.5101 74.3024 82.3869 74.3846C82.2574 74.4709 82.1209 74.5 82.0159 74.5V73.5V72.5C81.771 72.5 81.512 72.5641 81.2775 72.7205C81.0493 72.8726 80.9008 73.0742 80.8065 73.2628C80.632 73.6117 80.5959 74.0089 80.5959 74.34H81.5959ZM82.0159 73.5V74.5C84.3234 74.5 86.9148 74.5923 89.7916 74.7779L89.8559 73.78L89.9203 72.7821C87.0104 72.5943 84.3751 72.5 82.0159 72.5V73.5ZM89.8559 73.78L89.8247 74.7795C92.8227 74.8732 95.9598 74.92 99.2359 74.92V73.92V72.92C95.9787 72.92 92.8625 72.8735 89.8872 72.7805L89.8559 73.78ZM99.2359 73.92V74.92C101.513 74.92 104.435 74.7779 107.995 74.4969L107.916 73.5L107.837 72.5031C104.303 72.7821 101.439 72.92 99.2359 72.92V73.92ZM107.916 73.5L107.993 74.4971C111.609 74.2188 115.084 74.08 118.416 74.08V73.08V72.08C115.028 72.08 111.503 72.2211 107.839 72.5029L107.916 73.5ZM118.416 73.08V74.08C124.018 74.08 128.939 74.8608 133.196 76.4004L133.536 75.46L133.876 74.5196C129.359 72.8859 124.201 72.08 118.416 72.08V73.08ZM133.536 75.46L133.22 76.4087C137.534 77.8467 140.908 80.1666 143.387 83.3539L144.176 82.74L144.965 82.1261C142.218 78.5934 138.498 76.06 133.852 74.5113L133.536 75.46ZM144.176 82.74L143.387 83.3539C145.837 86.5045 147.195 90.7159 147.377 96.0739L148.376 96.04L149.375 96.0061C149.184 90.3508 147.742 85.6955 144.965 82.1261L144.176 82.74ZM148.376 96.04L147.376 96.0592C147.467 100.787 146.648 104.82 144.962 108.193L145.856 108.64L146.75 109.087C148.611 105.367 149.472 101 149.376 96.0208L148.376 96.04ZM145.856 108.64L144.962 108.193C143.255 111.606 140.926 114.425 137.972 116.663L138.576 117.46L139.18 118.257C142.386 115.829 144.91 112.768 146.75 109.087L145.856 108.64ZM138.576 117.46L137.976 116.66C135.078 118.834 131.861 120.511 128.32 121.691L128.636 122.64L128.952 123.589C132.691 122.342 136.101 120.566 139.176 118.26L138.576 117.46ZM128.636 122.64L128.342 121.684C124.793 122.776 121.252 123.32 117.716 123.32V124.32V125.32C121.46 125.32 125.199 124.744 128.93 123.596L128.636 122.64ZM117.716 124.32V123.32C116.719 123.32 115.625 123.275 114.433 123.183L114.356 124.18L114.279 125.177C115.514 125.272 116.66 125.32 117.716 125.32V124.32ZM114.356 124.18L114.439 123.183C113.374 123.095 112.308 122.917 111.238 122.65L110.996 123.62L110.753 124.59C111.924 124.883 113.098 125.079 114.273 125.177L114.356 124.18ZM110.996 123.62L111.312 122.671C111.4 122.7 111.493 122.757 111.568 122.842C111.64 122.923 111.668 122.997 111.677 123.03C111.686 123.06 111.681 123.061 111.681 123.016C111.681 122.973 111.686 122.904 111.702 122.804L110.716 122.64L109.73 122.476C109.673 122.816 109.648 123.209 109.754 123.58C109.876 124.005 110.175 124.401 110.68 124.569L110.996 123.62ZM110.716 122.64L111.706 122.781C111.723 122.662 111.742 122.589 111.756 122.55C111.771 122.509 111.769 122.532 111.729 122.58C111.682 122.636 111.592 122.714 111.456 122.756C111.324 122.796 111.219 122.782 111.173 122.77L111.416 121.8L111.658 120.83C111.426 120.772 111.152 120.757 110.868 120.844C110.581 120.933 110.356 121.104 110.193 121.3C109.895 121.657 109.781 122.116 109.726 122.499L110.716 122.64ZM111.416 121.8L111.173 122.77C111.976 122.971 112.865 123.118 113.836 123.215L113.936 122.22L114.035 121.225C113.14 121.135 112.349 121.003 111.658 120.83L111.416 121.8ZM113.936 122.22L113.836 123.215C114.79 123.31 115.619 123.36 116.316 123.36V122.36V121.36C115.707 121.36 114.949 121.316 114.035 121.225L113.936 122.22ZM116.316 122.36V123.36C119.589 123.36 122.624 122.464 125.397 120.681L124.856 119.84L124.315 118.999C121.862 120.576 119.202 121.36 116.316 121.36V122.36ZM124.856 119.84L125.397 120.681C128.203 118.877 130.416 116.145 132.065 112.557L131.156 112.14L130.247 111.723C128.722 115.041 126.735 117.443 124.315 118.999L124.856 119.84ZM131.156 112.14L132.055 112.577C133.821 108.948 134.676 104.446 134.676 99.12H133.676H132.676C132.676 104.247 131.851 108.425 130.257 111.703L131.156 112.14ZM133.676 99.12H134.676C134.676 94.0709 133.867 89.72 132.205 86.1025L131.296 86.52L130.387 86.9375C131.898 90.2267 132.676 94.2758 132.676 99.12H133.676ZM131.296 86.52L132.205 86.1025C130.545 82.4915 128.181 79.7165 125.099 77.8274L124.576 78.68L124.053 79.5326C126.758 81.1902 128.873 83.6419 130.387 86.9375L131.296 86.52ZM124.576 78.68L125.131 77.848C122.133 75.8497 118.476 74.88 114.216 74.88V75.88V76.88C118.169 76.88 121.419 77.7769 124.021 79.512L124.576 78.68ZM114.216 75.88V74.88C112.016 74.88 110.195 75.1165 108.817 75.6466L109.176 76.58L109.535 77.5133C110.583 77.1102 112.123 76.88 114.216 76.88V75.88ZM109.176 76.58L108.882 75.6242C107.336 76.0999 106.276 77.1919 105.714 78.7637L106.656 79.1L107.598 79.4363C107.97 78.3948 108.589 77.8068 109.47 77.5358L109.176 76.58ZM106.656 79.1L105.714 78.7637C105.188 80.2378 104.956 82.3862 104.956 85.12H105.956H106.956C106.956 82.4404 107.191 80.5755 107.598 79.4363L106.656 79.1ZM105.956 85.12H104.956V149.1H105.956H106.956V85.12H105.956ZM170.192 144.06L169.192 144.039L169.192 144.041L170.192 144.06ZM171.592 76.72L171.666 75.7227L170.614 75.6448L170.592 76.6992L171.592 76.72ZM175.372 77L176.372 77.023L176.393 76.0729L175.446 76.0027L175.372 77ZM173.832 144.06L172.832 144.037L172.832 144.041L173.832 144.06ZM176.632 155.4L175.832 156L175.839 156.009L175.846 156.018L176.632 155.4ZM164.452 160.86L164.412 159.861L164.41 159.861L164.452 160.86ZM166.832 155.4L166.059 154.765L166.052 154.774L166.046 154.782L166.832 155.4ZM261.192 160.86L261.161 161.86V161.86L261.192 160.86ZM242.572 160.86L242.54 159.861L242.539 159.861L242.572 160.86ZM243.552 157.5L244.232 158.233V158.233L243.552 157.5ZM245.092 149.66L244.093 149.706L244.093 149.718L244.094 149.73L245.092 149.66ZM242.152 85.68L241.309 85.1423L241.138 85.4094L241.153 85.7259L242.152 85.68ZM248.312 76.02L249.232 76.4124L247.469 75.4823L248.312 76.02ZM212.472 160.02L211.552 159.628L211.521 159.701L211.502 159.777L212.472 160.02ZM210.092 160.02L210.986 159.573L210.984 159.568L210.092 160.02ZM172.152 85.12L173.044 84.6681L173.044 84.6678L172.152 85.12ZM164.592 73.64L164.544 74.6389L164.546 74.639L164.592 73.64ZM175.232 73.64L175.176 72.6415L175.173 72.6417L175.232 73.64ZM182.092 74.9L181.273 75.4735L181.306 75.521L181.344 75.5644L182.092 74.9ZM185.592 80.78L186.483 80.3255L186.481 80.322L185.592 80.78ZM217.092 142.52L217.962 143.012L218.227 142.544L217.983 142.066L217.092 142.52ZM211.072 153.16L210.155 152.761L211.942 153.652L211.072 153.16ZM244.252 77L243.344 76.5809L243.339 76.5907L243.335 76.6006L244.252 77ZM246.072 74.34L245.421 73.5807V73.5807L246.072 74.34ZM251.112 73.64L251.012 74.6351L251.021 74.6359L251.112 73.64ZM261.892 73.64L261.939 74.6389V74.6389L261.892 73.64ZM258.112 77.56L258.723 78.3513V78.3513L258.112 77.56ZM255.312 85.68L256.311 85.6319L256.311 85.6313L255.312 85.68ZM258.392 149.66L257.393 149.708L257.394 149.718L257.394 149.729L258.392 149.66ZM259.372 155.82L258.423 156.136L258.432 156.164L258.443 156.191L259.372 155.82ZM262.452 158.62L262.154 159.574L262.162 159.577L262.17 159.579L262.452 158.62ZM170.192 144.06L171.192 144.081L172.592 76.7408L171.592 76.72L170.592 76.6992L169.192 144.039L170.192 144.06ZM171.592 76.72L171.518 77.7173L175.298 77.9973L175.372 77L175.446 76.0027L171.666 75.7227L171.592 76.72ZM175.372 77L174.372 76.977L172.832 144.037L173.832 144.06L174.832 144.083L176.372 77.023L175.372 77ZM173.832 144.06L172.832 144.041C172.737 149.102 173.685 153.137 175.832 156L176.632 155.4L177.432 154.8C175.659 152.436 174.741 148.912 174.832 144.079L173.832 144.06ZM176.632 155.4L175.846 156.018C178.128 158.923 181.483 160.32 185.732 160.32V159.32V158.32C181.955 158.32 179.242 157.104 177.418 154.782L176.632 155.4ZM185.732 159.32V160.32C185.627 160.32 185.49 160.291 185.361 160.205C185.238 160.122 185.177 160.026 185.152 159.977C185.13 159.932 185.133 159.917 185.139 159.957C185.145 159.994 185.152 160.059 185.152 160.16H186.152H187.152C187.152 159.829 187.116 159.432 186.941 159.083C186.847 158.894 186.699 158.693 186.47 158.54C186.236 158.384 185.977 158.32 185.732 158.32V159.32ZM186.152 160.16H185.152C185.152 160.261 185.145 160.326 185.139 160.363C185.133 160.403 185.13 160.387 185.152 160.343C185.177 160.294 185.238 160.198 185.361 160.115C185.49 160.029 185.627 160 185.732 160V161V162C185.977 162 186.236 161.936 186.47 161.78C186.699 161.627 186.847 161.426 186.941 161.237C187.116 160.888 187.152 160.491 187.152 160.16H186.152ZM185.732 161V160C183.694 160 181.608 159.954 179.475 159.861L179.432 160.86L179.388 161.859C181.549 161.953 183.663 162 185.732 162V161ZM179.432 160.86L179.475 159.861C177.311 159.767 174.87 159.72 172.152 159.72V160.72V161.72C174.848 161.72 177.259 161.766 179.388 161.859L179.432 160.86ZM172.152 160.72V159.72C169.341 159.72 166.761 159.767 164.412 159.861L164.452 160.86L164.492 161.859C166.81 161.766 169.363 161.72 172.152 161.72V160.72ZM164.452 160.86L164.41 159.861C162.183 159.954 160.05 160 158.012 160V161V162C160.08 162 162.241 161.953 164.493 161.859L164.452 160.86ZM158.012 161V160C158.117 160 158.253 160.029 158.383 160.115C158.506 160.198 158.567 160.294 158.591 160.343C158.614 160.387 158.611 160.403 158.605 160.363C158.598 160.326 158.592 160.261 158.592 160.16H157.592H156.592C156.592 160.491 156.628 160.888 156.802 161.237C156.897 161.426 157.045 161.627 157.273 161.78C157.508 161.936 157.767 162 158.012 162V161ZM157.592 160.16H158.592C158.592 160.059 158.598 159.994 158.605 159.957C158.611 159.917 158.614 159.932 158.591 159.977C158.567 160.026 158.506 160.122 158.383 160.205C158.253 160.291 158.117 160.32 158.012 160.32V159.32V158.32C157.767 158.32 157.508 158.384 157.273 158.54C157.045 158.693 156.897 158.894 156.802 159.083C156.628 159.432 156.592 159.829 156.592 160.16H157.592ZM158.012 159.32V160.32C162.093 160.32 165.345 158.911 167.618 156.018L166.832 155.4L166.046 154.782C164.212 157.116 161.584 158.32 158.012 158.32V159.32ZM166.832 155.4L167.605 156.035C169.947 153.183 171.096 149.15 171.192 144.079L170.192 144.06L169.192 144.041C169.101 148.863 168.01 152.39 166.059 154.765L166.832 155.4ZM269.312 159.32V160.32C269.207 160.32 269.094 160.3 268.984 160.252C268.874 160.205 268.789 160.142 268.727 160.08C268.612 159.964 268.577 159.857 268.573 159.846C268.567 159.828 268.574 159.841 268.581 159.903C268.587 159.962 268.592 160.046 268.592 160.16H269.592H270.592C270.592 159.851 270.569 159.51 270.471 159.214C270.38 158.943 270.069 158.32 269.312 158.32V159.32ZM269.592 160.16H268.592C268.592 160.274 268.587 160.358 268.581 160.417C268.574 160.479 268.567 160.492 268.573 160.474C268.577 160.463 268.612 160.356 268.727 160.24C268.789 160.178 268.874 160.115 268.984 160.068C269.094 160.02 269.207 160 269.312 160V161V162C270.069 162 270.38 161.377 270.471 161.106C270.569 160.81 270.592 160.469 270.592 160.16H269.592ZM269.312 161V160C266.898 160 264.202 159.954 261.223 159.86L261.192 160.86L261.161 161.86C264.155 161.953 266.873 162 269.312 162V161ZM261.192 160.86L261.223 159.86C258.225 159.767 255.088 159.72 251.812 159.72V160.72V161.72C255.069 161.72 258.185 161.767 261.161 161.86L261.192 160.86ZM251.812 160.72V159.72C248.536 159.72 245.445 159.767 242.54 159.861L242.572 160.86L242.604 161.859C245.485 161.767 248.555 161.72 251.812 161.72V160.72ZM242.572 160.86L242.539 159.861C239.748 159.954 237.192 160 234.872 160V161V162C237.218 162 239.796 161.953 242.605 161.859L242.572 160.86ZM234.872 161V160C234.977 160 235.09 160.02 235.2 160.068C235.309 160.115 235.394 160.178 235.456 160.24C235.572 160.356 235.607 160.463 235.611 160.474C235.617 160.492 235.61 160.479 235.603 160.417C235.597 160.358 235.592 160.274 235.592 160.16H234.592H233.592C233.592 160.469 233.614 160.81 233.713 161.106C233.803 161.377 234.114 162 234.872 162V161ZM234.592 160.16H235.592C235.592 160.046 235.597 159.962 235.603 159.903C235.61 159.841 235.617 159.828 235.611 159.846C235.607 159.857 235.572 159.964 235.456 160.08C235.394 160.142 235.309 160.205 235.2 160.252C235.09 160.3 234.977 160.32 234.872 160.32V159.32V158.32C234.114 158.32 233.803 158.943 233.713 159.214C233.614 159.51 233.592 159.851 233.592 160.16H234.592ZM234.872 159.32V160.32C237.149 160.32 239.068 160.166 240.607 159.844C242.127 159.525 243.385 159.02 244.232 158.233L243.552 157.5L242.871 156.767C242.412 157.194 241.57 157.598 240.197 157.886C238.842 158.17 237.074 158.32 234.872 158.32V159.32ZM243.552 157.5L244.232 158.233C245.1 157.427 245.62 156.24 245.898 154.823C246.178 153.398 246.233 151.645 246.089 149.59L245.092 149.66L244.094 149.73C244.231 151.688 244.169 153.249 243.936 154.437C243.701 155.634 243.311 156.359 242.871 156.767L243.552 157.5ZM245.092 149.66L246.091 149.614L243.151 85.6341L242.152 85.68L241.153 85.7259L244.093 149.706L245.092 149.66ZM242.152 85.68L242.995 86.2177L249.155 76.5577L248.312 76.02L247.469 75.4823L241.309 85.1423L242.152 85.68ZM248.312 76.02L247.392 75.6276L211.552 159.628L212.472 160.02L213.392 160.412L249.232 76.4124L248.312 76.02ZM212.472 160.02L211.502 159.777C211.513 159.733 211.538 159.677 211.581 159.625C211.623 159.575 211.662 159.552 211.675 159.546C211.684 159.541 211.668 159.551 211.61 159.561C211.554 159.571 211.469 159.58 211.352 159.58V160.58V161.58C211.755 161.58 212.187 161.526 212.569 161.334C212.992 161.123 213.318 160.758 213.442 160.263L212.472 160.02ZM211.352 160.58V159.58C211.11 159.58 210.993 159.544 210.953 159.526C210.937 159.519 210.941 159.518 210.954 159.53C210.968 159.543 210.98 159.559 210.986 159.573L210.092 160.02L209.197 160.467C209.638 161.348 210.554 161.58 211.352 161.58V160.58ZM210.092 160.02L210.984 159.568L173.044 84.6681L172.152 85.12L171.26 85.5719L209.2 160.472L210.092 160.02ZM172.152 85.12L173.044 84.6678C169.587 77.8495 164.92 74.18 158.992 74.18V75.18V76.18C163.89 76.18 167.997 79.1371 171.26 85.5722L172.152 85.12ZM158.992 75.18V74.18C159.097 74.18 159.233 74.2091 159.363 74.2954C159.486 74.3776 159.547 74.4742 159.571 74.5228C159.594 74.5675 159.591 74.5826 159.585 74.5431C159.578 74.5063 159.572 74.441 159.572 74.34H158.572H157.572C157.572 74.6711 157.608 75.0683 157.782 75.4172C157.877 75.6058 158.025 75.8074 158.253 75.9595C158.488 76.1159 158.747 76.18 158.992 76.18V75.18ZM158.572 74.34H159.572C159.572 74.239 159.578 74.1737 159.585 74.1369C159.591 74.0974 159.594 74.1125 159.571 74.1572C159.547 74.2058 159.486 74.3024 159.363 74.3846C159.233 74.4709 159.097 74.5 158.992 74.5V73.5V72.5C158.747 72.5 158.488 72.5641 158.253 72.7205C158.025 72.8726 157.877 73.0742 157.782 73.2628C157.608 73.6117 157.572 74.0089 157.572 74.34H158.572ZM158.992 73.5V74.5C160.748 74.5 162.599 74.5462 164.544 74.6389L164.592 73.64L164.639 72.6411C162.665 72.5471 160.783 72.5 158.992 72.5V73.5ZM164.592 73.64L164.546 74.639C166.609 74.7327 168.352 74.78 169.772 74.78V73.78V72.78C168.392 72.78 166.682 72.734 164.637 72.641L164.592 73.64ZM169.772 73.78V74.78C171.839 74.78 173.68 74.733 175.291 74.6383L175.232 73.64L175.173 72.6417C173.611 72.7336 171.811 72.78 169.772 72.78V73.78ZM175.232 73.64L175.287 74.6385C176.961 74.5455 178.246 74.5 179.152 74.5V73.5V72.5C178.191 72.5 176.863 72.5479 175.176 72.6415L175.232 73.64ZM179.152 73.5V74.5C180.188 74.5 180.836 74.8498 181.273 75.4735L182.092 74.9L182.911 74.3265C182.041 73.0835 180.729 72.5 179.152 72.5V73.5ZM182.092 74.9L181.344 75.5644C181.993 76.2937 183.105 78.1362 184.703 81.238L185.592 80.78L186.481 80.322C184.905 77.2638 183.684 75.1863 182.839 74.2356L182.092 74.9ZM185.592 80.78L184.701 81.2345L216.201 142.974L217.092 142.52L217.983 142.066L186.483 80.3255L185.592 80.78ZM217.092 142.52L216.222 142.028L210.202 152.668L211.072 153.16L211.942 153.652L217.962 143.012L217.092 142.52ZM211.072 153.16L211.989 153.559L245.169 77.3994L244.252 77L243.335 76.6006L210.155 152.761L211.072 153.16ZM244.252 77L245.16 77.4191C245.69 76.2714 246.222 75.5283 246.723 75.0993L246.072 74.34L245.421 73.5807C244.615 74.2717 243.934 75.3019 243.344 76.5809L244.252 77ZM246.072 74.34L246.723 75.0993C247.179 74.7082 247.735 74.5 248.452 74.5V73.5V72.5C247.302 72.5 246.272 72.8518 245.421 73.5807L246.072 74.34ZM248.452 73.5V74.5C249.255 74.5 250.108 74.5446 251.012 74.635L251.112 73.64L251.211 72.645C250.249 72.5487 249.329 72.5 248.452 72.5V73.5ZM251.112 73.64L251.021 74.6359C252.087 74.7327 253.332 74.78 254.752 74.78V73.78V72.78C253.372 72.78 252.191 72.7339 251.202 72.6441L251.112 73.64ZM254.752 73.78V74.78C257.562 74.78 259.959 74.7332 261.939 74.6389L261.892 73.64L261.844 72.6411C259.905 72.7335 257.542 72.78 254.752 72.78V73.78ZM261.892 73.64L261.939 74.6389C263.884 74.5462 265.782 74.5 267.632 74.5V73.5V72.5C265.749 72.5 263.819 72.5471 261.844 72.6411L261.892 73.64ZM267.632 73.5V74.5C267.527 74.5 267.39 74.4709 267.261 74.3846C267.138 74.3024 267.077 74.2058 267.052 74.1572C267.03 74.1125 267.033 74.0974 267.039 74.1369C267.045 74.1737 267.052 74.239 267.052 74.34H268.052H269.052C269.052 74.0089 269.016 73.6117 268.841 73.2628C268.747 73.0742 268.599 72.8726 268.37 72.7204C268.136 72.5641 267.877 72.5 267.632 72.5V73.5ZM268.052 74.34H267.052C267.052 74.441 267.045 74.5063 267.039 74.5431C267.033 74.5826 267.03 74.5675 267.052 74.5228C267.077 74.4741 267.138 74.3776 267.261 74.2954C267.39 74.2091 267.527 74.18 267.632 74.18V75.18V76.18C267.877 76.18 268.136 76.1159 268.37 75.9595C268.599 75.8074 268.747 75.6058 268.841 75.4172C269.016 75.0683 269.052 74.6711 269.052 74.34H268.052ZM267.632 75.18V74.18C263.25 74.18 259.811 74.9834 257.5 76.7687L258.112 77.56L258.723 78.3513C260.52 76.9633 263.427 76.18 267.632 76.18V75.18ZM258.112 77.56L257.5 76.7687C255.081 78.6383 254.118 81.7399 254.313 85.7287L255.312 85.68L256.311 85.6313C256.132 81.9667 257.036 79.6551 258.723 78.3513L258.112 77.56ZM255.312 85.68L254.313 85.7281L257.393 149.708L258.392 149.66L259.391 149.612L256.311 85.6319L255.312 85.68ZM258.392 149.66L257.394 149.729C257.583 152.462 257.916 154.615 258.423 156.136L259.372 155.82L260.321 155.504C259.894 154.225 259.574 152.271 259.39 149.591L258.392 149.66ZM259.372 155.82L258.443 156.191C259.12 157.883 260.386 159.022 262.154 159.574L262.452 158.62L262.75 157.666C261.531 157.285 260.744 156.557 260.3 155.449L259.372 155.82ZM262.452 158.62L262.17 159.579C263.894 160.086 266.293 160.32 269.312 160.32V159.32V158.32C266.357 158.32 264.183 158.087 262.734 157.661L262.452 158.62Z" fill="black" fill-opacity="0.2" mask="url(#path-1-outside-1_4_15)"/>
<rect x="285" y="66" width="2" height="100" fill="#C8A15A"/>
<path d="M302.466 112V91.6364H309.347C310.944 91.6364 312.25 91.9247 313.264 92.5014C314.285 93.0715 315.041 93.8438 315.531 94.8182C316.022 95.7926 316.267 96.8797 316.267 98.0795C316.267 99.2794 316.022 100.37 315.531 101.351C315.047 102.332 314.298 103.114 313.284 103.697C312.27 104.274 310.971 104.562 309.386 104.562H304.455V102.375H309.307C310.401 102.375 311.279 102.186 311.942 101.808C312.605 101.43 313.085 100.92 313.384 100.277C313.688 99.6274 313.841 98.8949 313.841 98.0795C313.841 97.2642 313.688 96.535 313.384 95.892C313.085 95.2491 312.601 94.7453 311.932 94.3807C311.262 94.0095 310.374 93.8239 309.267 93.8239H304.932V112H302.466ZM326.065 91.6364V112H323.599V91.6364H326.065ZM333.256 93.8239V91.6364H348.529V93.8239H342.125V112H339.659V93.8239H333.256ZM354.581 93.8239V91.6364H369.853V93.8239H363.45V112H360.984V93.8239H354.581ZM388.254 112V91.6364H395.135C396.732 91.6364 398.038 91.9247 399.052 92.5014C400.073 93.0715 400.829 93.8438 401.32 94.8182C401.81 95.7926 402.055 96.8797 402.055 98.0795C402.055 99.2794 401.81 100.37 401.32 101.351C400.836 102.332 400.087 103.114 399.072 103.697C398.058 104.274 396.759 104.562 395.175 104.562H390.243V102.375H395.095C396.189 102.375 397.067 102.186 397.73 101.808C398.393 101.43 398.874 100.92 399.172 100.277C399.477 99.6274 399.629 98.8949 399.629 98.0795C399.629 97.2642 399.477 96.535 399.172 95.892C398.874 95.2491 398.39 94.7453 397.72 94.3807C397.051 94.0095 396.162 93.8239 395.055 93.8239H390.72V112H388.254ZM409.388 112V91.6364H416.268C417.859 91.6364 419.165 91.9081 420.186 92.4517C421.207 92.9886 421.962 93.7277 422.453 94.669C422.943 95.6103 423.189 96.6809 423.189 97.8807C423.189 99.0805 422.943 100.144 422.453 101.072C421.962 102 421.21 102.73 420.196 103.26C419.182 103.784 417.886 104.045 416.308 104.045H410.74V101.818H416.229C417.316 101.818 418.191 101.659 418.854 101.341C419.523 101.023 420.007 100.572 420.305 99.9886C420.61 99.3987 420.763 98.696 420.763 97.8807C420.763 97.0653 420.61 96.3527 420.305 95.7429C420 95.133 419.513 94.6624 418.844 94.331C418.174 93.9929 417.289 93.8239 416.189 93.8239H411.854V112H409.388ZM418.973 102.852L423.984 112H421.121L416.189 102.852H418.973ZM447.84 101.818C447.84 103.966 447.452 105.822 446.676 107.386C445.901 108.951 444.837 110.157 443.484 111.006C442.132 111.854 440.588 112.278 438.851 112.278C437.114 112.278 435.57 111.854 434.217 111.006C432.865 110.157 431.801 108.951 431.026 107.386C430.25 105.822 429.862 103.966 429.862 101.818C429.862 99.6705 430.25 97.8144 431.026 96.25C431.801 94.6856 432.865 93.4792 434.217 92.6307C435.57 91.7822 437.114 91.358 438.851 91.358C440.588 91.358 442.132 91.7822 443.484 92.6307C444.837 93.4792 445.901 94.6856 446.676 96.25C447.452 97.8144 447.84 99.6705 447.84 101.818ZM445.453 101.818C445.453 100.055 445.158 98.5668 444.568 97.3537C443.985 96.1406 443.193 95.2225 442.192 94.5994C441.198 93.9763 440.084 93.6648 438.851 93.6648C437.618 93.6648 436.501 93.9763 435.5 94.5994C434.506 95.2225 433.714 96.1406 433.124 97.3537C432.54 98.5668 432.249 100.055 432.249 101.818C432.249 103.581 432.54 105.07 433.124 106.283C433.714 107.496 434.506 108.414 435.5 109.037C436.501 109.66 437.618 109.972 438.851 109.972C440.084 109.972 441.198 109.66 442.192 109.037C443.193 108.414 443.985 107.496 444.568 106.283C445.158 105.07 445.453 103.581 445.453 101.818ZM455.346 112V91.6364H462.227C463.824 91.6364 465.13 91.9247 466.144 92.5014C467.165 93.0715 467.921 93.8438 468.411 94.8182C468.902 95.7926 469.147 96.8797 469.147 98.0795C469.147 99.2794 468.902 100.37 468.411 101.351C467.927 102.332 467.178 103.114 466.164 103.697C465.15 104.274 463.851 104.562 462.266 104.562H457.335V102.375H462.187C463.281 102.375 464.159 102.186 464.822 101.808C465.485 101.43 465.965 100.92 466.264 100.277C466.568 99.6274 466.721 98.8949 466.721 98.0795C466.721 97.2642 466.568 96.535 466.264 95.892C465.965 95.2491 465.481 94.7453 464.812 94.3807C464.142 94.0095 463.254 93.8239 462.147 93.8239H457.812V112H455.346ZM476.479 112V91.6364H488.769V93.8239H478.945V100.705H488.133V102.892H478.945V109.812H488.928V112H476.479ZM496.574 112V91.6364H503.454C505.045 91.6364 506.351 91.9081 507.372 92.4517C508.393 92.9886 509.149 93.7277 509.639 94.669C510.13 95.6103 510.375 96.6809 510.375 97.8807C510.375 99.0805 510.13 100.144 509.639 101.072C509.149 102 508.396 102.73 507.382 103.26C506.368 103.784 505.072 104.045 503.494 104.045H497.926V101.818H503.415C504.502 101.818 505.377 101.659 506.04 101.341C506.709 101.023 507.193 100.572 507.491 99.9886C507.796 99.3987 507.949 98.696 507.949 97.8807C507.949 97.0653 507.796 96.3527 507.491 95.7429C507.186 95.133 506.699 94.6624 506.03 94.331C505.36 93.9929 504.475 93.8239 503.375 93.8239H499.04V112H496.574ZM506.159 102.852L511.17 112H508.307L503.375 102.852H506.159ZM516.73 93.8239V91.6364H532.003V93.8239H525.6V112H523.134V93.8239H516.73ZM537.419 91.6364H540.243L545.89 101.142H546.129L551.777 91.6364H554.601L547.243 103.608V112H544.777V103.608L537.419 91.6364ZM302.466 119.636H305.409L312.33 136.54H312.568L319.489 119.636H322.432V140H320.125V124.528H319.926L313.562 140H311.335L304.972 124.528H304.773V140H302.466V119.636ZM334.371 140H331.786L339.263 119.636H341.809L349.286 140H346.701L340.616 122.858H340.457L334.371 140ZM335.326 132.045H345.746V134.233H335.326V132.045ZM374.766 119.636V140H372.379L361.283 124.011H361.084V140H358.618V119.636H361.004L372.141 135.665H372.34V119.636H374.766ZM386.695 140H384.11L391.587 119.636H394.133L401.61 140H399.025L392.94 122.858H392.78L386.695 140ZM387.65 132.045H398.07V134.233H387.65V132.045ZM423.905 126C423.687 125.33 423.398 124.731 423.04 124.2C422.689 123.663 422.268 123.206 421.777 122.828C421.294 122.45 420.743 122.162 420.127 121.963C419.51 121.764 418.834 121.665 418.098 121.665C416.892 121.665 415.795 121.976 414.807 122.599C413.82 123.223 413.034 124.141 412.451 125.354C411.867 126.567 411.576 128.055 411.576 129.818C411.576 131.581 411.871 133.07 412.461 134.283C413.051 135.496 413.849 136.414 414.857 137.037C415.865 137.66 416.998 137.972 418.258 137.972C419.424 137.972 420.452 137.723 421.34 137.226C422.235 136.722 422.931 136.013 423.428 135.098C423.932 134.177 424.184 133.093 424.184 131.847L424.939 132.006H418.814V129.818H426.57V132.006C426.57 133.683 426.212 135.141 425.496 136.381C424.787 137.62 423.806 138.581 422.553 139.264C421.307 139.94 419.875 140.278 418.258 140.278C416.455 140.278 414.87 139.854 413.505 139.006C412.146 138.157 411.085 136.951 410.323 135.386C409.567 133.822 409.189 131.966 409.189 129.818C409.189 128.207 409.405 126.759 409.836 125.473C410.273 124.18 410.89 123.08 411.685 122.172C412.481 121.264 413.422 120.568 414.509 120.084C415.596 119.6 416.793 119.358 418.098 119.358C419.172 119.358 420.173 119.52 421.101 119.845C422.036 120.163 422.868 120.617 423.597 121.207C424.333 121.791 424.946 122.49 425.437 123.305C425.927 124.114 426.265 125.012 426.451 126H423.905ZM436.953 140V119.636H449.243V121.824H439.419V128.705H448.607V130.892H439.419V137.812H449.402V140H436.953ZM459.848 119.636H462.791L469.711 136.54H469.95L476.871 119.636H479.814V140H477.507V124.528H477.308L470.944 140H468.717L462.353 124.528H462.155V140H459.848V119.636ZM490.918 140V119.636H503.208V121.824H493.384V128.705H502.571V130.892H493.384V137.812H503.367V140H490.918ZM529.96 119.636V140H527.574L516.477 124.011H516.278V140H513.812V119.636H516.199L527.335 135.665H527.534V119.636H529.96ZM539.941 121.824V119.636H555.213V121.824H548.81V140H546.344V121.824H539.941Z" fill="#0F1D35"/>
</svg>
